<?xml version="1.0" encoding="utf-8"?>
<!-- Generator: Adobe Illustrator 22.0.1, SVG Export Plug-In . SVG Version: 6.00 Build 0)  -->
<svg version="1.1" xmlns="http://www.w3.org/2000/svg" xmlns:xlink="http://www.w3.org/1999/xlink" x="0px" y="0px"
	 viewBox="0 0 640 360" enable-background="new 0 0 640 360" xml:space="preserve">
<g id="Ebene_1">
	<g>
		<path fill="#616568" d="M79.9,109.2c-0.2,2.4-1.3,4.6-3.2,6.1s-4.2,2.3-6.6,2.1L54.3,116c-2.4-0.2-4.6-1.3-6.1-3.2
			c-1.5-1.8-2.3-4.2-2.1-6.6l1.4-15.9c0.2-2.4,1.3-4.6,3.2-6.1c1.6-1.4,3.7-2.1,5.8-2.1c0.3,0,0.5,0,0.8,0l14,1.2
			c0.1-0.7,0.4-1.3,0.6-2l-14.5-1.3c-2.9-0.3-5.8,0.6-8,2.5s-3.6,4.5-3.9,7.5L44.1,106c-0.3,2.9,0.6,5.8,2.5,8
			c1.9,2.3,4.5,3.6,7.5,3.9l15.9,1.4c0.3,0,0.7,0,1,0c2.6,0,5.1-0.9,7.1-2.6c2.3-1.9,3.6-4.5,3.9-7.5l1.4-15.9
			c-0.7,0.3-1.3,0.4-2.1,0.5L79.9,109.2z"/>
		<path opacity="0.2" fill="#616568" d="M298.6,301.1l-5.2,0.9c-0.3,0.6-0.6,1.1-1,1.7l-6.1,8.7c-0.4,0.6-1.3,0.7-1.9,0.3l-8.7-6.1
			c-0.5-0.4-1-0.8-1.5-1.2l-6.2,1.1l3,16.7l30.5-5.4L298.6,301.1z"/>
		<g>
			<path fill="#616568" d="M147.8,121.3c-0.2,0-0.3,0-0.5-0.1l-2.1-1.1c-7.7-3.9-12.7-6.5-14-11.3c-0.5-2-0.3-4,0.7-5.8
				c1-1.7,2.7-3,4.6-3.5c1.9-0.5,4-0.3,5.8,0.6c1.1-1.7,2.8-2.9,4.7-3.4c4.1-1.1,8.2,1.3,9.3,5.4c1.3,4.8-1.8,9.6-6.4,16.8l-1.3,2
				C148.5,121.1,148.2,121.3,147.8,121.3z M138.7,101.2c-0.5,0-1,0.1-1.5,0.2c-1.5,0.4-2.7,1.3-3.4,2.6s-0.9,2.8-0.5,4.3
				c1.1,4,5.8,6.4,13,10.1l1.3,0.7l0.8-1.2c4.4-6.8,7.3-11.3,6.2-15.2c-0.8-3-3.8-4.8-6.9-4c-1.7,0.5-3.2,1.7-3.9,3.3
				c-0.1,0.3-0.4,0.5-0.6,0.5c-0.3,0.1-0.6,0-0.8-0.1C141.2,101.6,140,101.2,138.7,101.2z"/>
		</g>
		<g>
			<path fill="#616568" d="M118.1,88.5c-0.3,0-0.7-0.2-0.8-0.5l-0.8-1.3c-3.2-4.9-5.2-8.1-4.3-11.5c0.8-2.9,3.7-4.6,6.6-3.8
				c1.3,0.3,2.4,1.1,3.1,2.2c1.2-0.5,2.6-0.6,3.8-0.3c1.4,0.4,2.6,1.3,3.3,2.5c0.7,1.2,0.9,2.7,0.5,4.1c-0.9,3.3-4.3,5.1-9.5,7.8
				l-1.4,0.7C118.4,88.5,118.3,88.5,118.1,88.5z M117.3,73.2c-1.5,0-2.8,1-3.3,2.5c-0.7,2.5,1.2,5.4,4.1,9.9l0.4,0.6l0.6-0.3
				c4.7-2.4,7.8-4,8.5-6.5c0.2-0.9,0.1-1.8-0.3-2.6s-1.2-1.3-2.1-1.6c-1-0.3-2.2-0.1-3.1,0.5c-0.2,0.2-0.5,0.2-0.8,0.1
				c-0.3-0.1-0.5-0.3-0.6-0.5c-0.5-1-1.4-1.7-2.4-2C117.9,73.3,117.6,73.2,117.3,73.2z"/>
		</g>
		<g opacity="0.2">
			<path fill="#616568" d="M176.8,177v5.3h15.2v12.7h-15.2V208h-16.5v-43.3h33.9V177H176.8z"/>
			<path fill="#616568" d="M236.6,191c0,11.3-9.4,17.8-20.4,17.8c-11.1,0-20.5-6.5-20.5-17.8s9.5-17.8,20.5-17.8
				C227.2,173.3,236.6,179.8,236.6,191z M220.9,191c0-3.2-1.9-6-4.8-6s-4.8,2.8-4.8,6c0,3.2,1.9,6,4.8,6S220.9,194.2,220.9,191z"/>
			<path fill="#616568" d="M240.8,160.7h16.3V208h-16.3V160.7z"/>
			<path fill="#616568" d="M263.1,160.7h16.3V208h-16.3V160.7z"/>
			<path fill="#616568" d="M324.5,191c0,11.3-9.4,17.8-20.4,17.8c-11.1,0-20.5-6.5-20.5-17.8s9.5-17.8,20.5-17.8
				C315.1,173.3,324.5,179.8,324.5,191z M308.8,191c0-3.2-1.9-6-4.8-6s-4.8,2.8-4.8,6c0,3.2,1.9,6,4.8,6S308.8,194.2,308.8,191z"/>
			<path fill="#616568" d="M385.4,174.1L375.2,208h-15.8l-4.5-15.4l-4.7,15.4h-15.7l-10.2-33.9h16.6l3.3,18.5l4.8-18.5h11.6
				l5.1,18.5l3.5-18.5H385.4z"/>
			<path fill="#616568" d="M445.8,164.7v26.2c0,12.3-7.8,17.9-20.9,17.9s-20.9-5.6-20.9-17.9v-26.2h16.7v26c0,3.1,0.6,5.4,4.2,5.4
				c3.6,0,4.2-2.4,4.2-5.4v-26H445.8z"/>
			<path fill="#616568" d="M481.7,197c0,8-6.4,11.8-16.4,11.8c-5.6,0-11-1.5-15.4-3.9l1.5-9.7c2.9,1.9,7.2,3.5,11.5,3.5
				c1.7,0,2.7-0.4,2.7-1.3c0-2.1-14.6,0-14.6-12.2c0-8.1,6.7-11.9,16.7-11.9c4.7,0,9.2,1.1,13.1,2.8l-1.4,9.3c-2.3-1-6.5-2-9.2-2
				c-1.6,0-3.4,0.1-3.4,1.2C466.8,186.8,481.7,184.4,481.7,197z"/>
		</g>
		<g>
			<g>
				<path fill="#616568" d="M176.8,209h-16.5c-0.6,0-1-0.4-1-1v-43.3c0-0.6,0.4-1,1-1h33.9c0.6,0,1,0.4,1,1V177c0,0.6-0.4,1-1,1
					h-16.4v3.3h14.2c0.6,0,1,0.4,1,1v12.7c0,0.6-0.4,1-1,1h-14.2V208C177.8,208.6,177.4,209,176.8,209z M161.3,207h14.5v-11.9
					c0-0.6,0.4-1,1-1h14.2v-10.7h-14.2c-0.6,0-1-0.4-1-1V177c0-0.6,0.4-1,1-1h16.4v-10.3h-31.9V207z"/>
			</g>
			<g>
				<path fill="#616568" d="M216.2,209.8c-12.7,0-21.5-7.7-21.5-18.8s8.9-18.8,21.5-18.8c12.6,0,21.4,7.7,21.4,18.8
					S228.8,209.8,216.2,209.8z M216.2,174.3c-9.4,0-19.5,5.3-19.5,16.8s10.1,16.8,19.5,16.8c9.4,0,19.4-5.3,19.4-16.8
					S225.6,174.3,216.2,174.3z M216.1,198c-3.3,0-5.8-3-5.8-7s2.5-7,5.8-7s5.8,3,5.8,7S219.5,198,216.1,198z M216.1,186.1
					c-2.5,0-3.8,2.6-3.8,5s1.3,5,3.8,5s3.8-2.6,3.8-5S218.6,186.1,216.1,186.1z"/>
			</g>
			<g>
				<path fill="#616568" d="M257.1,209h-16.3c-0.6,0-1-0.4-1-1v-47.3c0-0.6,0.4-1,1-1h16.3c0.6,0,1,0.4,1,1V208
					C258.1,208.6,257.7,209,257.1,209z M241.8,207h14.3v-45.3h-14.3V207z"/>
			</g>
			<g>
				<path fill="#616568" d="M279.4,209h-16.3c-0.6,0-1-0.4-1-1v-47.3c0-0.6,0.4-1,1-1h16.3c0.6,0,1,0.4,1,1V208
					C280.4,208.6,279.9,209,279.4,209z M264.1,207h14.3v-45.3h-14.3V207z"/>
			</g>
			<g>
				<path fill="#616568" d="M304,209.8c-12.7,0-21.5-7.7-21.5-18.8s8.9-18.8,21.5-18.8c12.6,0,21.4,7.7,21.4,18.8
					S316.7,209.8,304,209.8z M304,174.3c-9.4,0-19.5,5.3-19.5,16.8s10.1,16.8,19.5,16.8c9.4,0,19.4-5.3,19.4-16.8
					S313.4,174.3,304,174.3z M304,198c-3.3,0-5.8-3-5.8-7s2.5-7,5.8-7s5.8,3,5.8,7S307.3,198,304,198z M304,186.1
					c-2.5,0-3.8,2.6-3.8,5s1.3,5,3.8,5s3.8-2.6,3.8-5S306.5,186.1,304,186.1z"/>
			</g>
			<g>
				<path fill="#616568" d="M375.2,209h-15.8c-0.4,0-0.8-0.3-1-0.7l-3.6-12.2l-3.7,12.2c-0.1,0.4-0.5,0.7-1,0.7h-15.7
					c-0.4,0-0.8-0.3-1-0.7l-10.2-33.9c-0.1-0.3,0-0.6,0.2-0.9s0.5-0.4,0.8-0.4h16.6c0.5,0,0.9,0.3,1,0.8l2.5,14l3.6-14
					c0.1-0.4,0.5-0.7,1-0.7h11.6c0.5,0,0.8,0.3,1,0.7l3.9,14.3l2.7-14.2c0.1-0.5,0.5-0.8,1-0.8h16.4c0.3,0,0.6,0.1,0.8,0.4
					s0.2,0.6,0.2,0.9l-10.2,33.9C376,208.7,375.6,209,375.2,209z M360.1,207h14.3l9.6-31.9h-14.3l-3.3,17.7
					c-0.1,0.5-0.5,0.8-0.9,0.8c-0.5,0-0.9-0.3-1-0.7l-4.9-17.8h-10l-4.6,17.7c-0.1,0.5-0.5,0.8-1,0.7c-0.5,0-0.9-0.4-0.9-0.8
					l-3.1-17.7h-14.5l9.6,31.9h14.3l4.5-14.7c0.1-0.4,0.5-0.7,1-0.7c0,0,0,0,0,0c0.4,0,0.8,0.3,1,0.7L360.1,207z"/>
			</g>
			<g>
				<path fill="#616568" d="M424.9,209.8c-14.3,0-21.9-6.5-21.9-18.9v-26.2c0-0.6,0.4-1,1-1h16.7c0.6,0,1,0.4,1,1v26
					c0,3.3,0.8,4.4,3.2,4.4c2.4,0,3.2-1.1,3.2-4.4v-26c0-0.6,0.4-1,1-1h16.7c0.6,0,1,0.4,1,1v26.2
					C446.8,203.3,439.2,209.8,424.9,209.8z M405,165.7v25.2c0,11.2,6.7,16.9,19.9,16.9c13.2,0,19.9-5.7,19.9-16.9v-25.2h-14.7v25
					c0,1.7,0,6.4-5.2,6.4c-5.2,0-5.2-4.5-5.2-6.4v-25H405z"/>
			</g>
			<g>
				<path fill="#616568" d="M465.3,209.8c-5.5,0-11-1.4-15.9-4c-0.4-0.2-0.6-0.6-0.5-1l1.5-9.7c0.1-0.3,0.3-0.6,0.6-0.8
					c0.3-0.1,0.7-0.1,1,0.1c3.1,2.1,7.2,3.3,11,3.3c0.6,0,1-0.1,1.3-0.1c-0.5-0.1-1.2-0.3-1.8-0.4c-4.3-0.9-12.4-2.5-12.4-12
					c0-8.2,6.5-12.9,17.7-12.9c4.5,0,9,1,13.4,2.8c0.4,0.2,0.7,0.6,0.6,1.1l-1.4,9.3c0,0.3-0.2,0.6-0.5,0.7s-0.6,0.2-0.9,0
					c-2.1-0.9-6.2-2-8.7-2c-0.9,0-1.5,0-1.9,0.1c0.5,0.2,1.3,0.3,2,0.5c4.4,0.9,12.5,2.6,12.5,12.2
					C482.7,205.2,476.4,209.8,465.3,209.8z M451,204.4c4.5,2.3,9.4,3.5,14.3,3.5c5.8,0,15.4-1.4,15.4-10.8c0-7.9-6.6-9.3-10.9-10.2
					c-2.4-0.5-4.1-0.9-4.1-2.4c0-2.2,2.9-2.2,4.4-2.2c2.5,0,5.9,0.8,8.4,1.7l1.1-7.3c-3.9-1.6-7.9-2.4-11.9-2.4
					c-5.9,0-15.7,1.4-15.7,10.9c0,7.8,6.5,9.1,10.8,10c2.2,0.5,3.8,0.8,3.8,2.2c0,0.7-0.4,2.3-3.7,2.3c-3.6,0-7.6-1-10.8-2.8
					L451,204.4z"/>
			</g>
		</g>
		<g>
			<path fill="#616568" d="M526.7,282.9l4.7,0.8l-4.2,23.8l-4.7-0.8L526.7,282.9z"/>
			<path fill="#616568" d="M533.5,292.9l4.7,0.8l-2.7,15.3l-4.7-0.8L533.5,292.9z M534,288c0.1-0.8,0.5-1.4,1.1-1.8s1.3-0.6,2.1-0.5
				c0.8,0.1,1.4,0.5,1.8,1.1s0.6,1.3,0.5,2.1c-0.1,0.8-0.5,1.4-1.1,1.8s-1.3,0.6-2.1,0.5c-0.8-0.1-1.4-0.5-1.8-1.1
				S533.9,288.7,534,288z"/>
			<path fill="#616568" d="M543.3,285.8l4.7,0.8l-2.6,14.6l6.3-5.1l5.8,1l-7.3,5.8l4.8,9.5l-6-1l-3.8-8.7l-0.1,0l-1.4,7.8l-4.7-0.8
				L543.3,285.8z"/>
			<path fill="#616568" d="M570.8,312.5c-0.9,0.8-2,1.4-3.3,1.7c-1.2,0.3-2.5,0.4-3.7,0.2c-1.2-0.2-2.3-0.6-3.2-1.2
				c-1-0.6-1.8-1.3-2.4-2.1c-0.6-0.8-1.1-1.8-1.4-2.9s-0.3-2.2-0.1-3.4s0.6-2.3,1.2-3.2c0.6-0.9,1.4-1.6,2.3-2.2
				c0.9-0.6,1.9-1,3-1.1c1.1-0.2,2.2-0.2,3.4,0c1.1,0.2,2.1,0.6,2.9,1.1c0.8,0.5,1.5,1.2,2,2c0.5,0.8,0.8,1.7,1,2.8
				c0.2,1,0.1,2.2-0.1,3.4l-0.3,1.5l-11-1.9c0,0.9,0.3,1.7,0.8,2.4c0.5,0.6,1.3,1.1,2.2,1.2c0.8,0.1,1.5,0.1,2.1-0.2
				c0.6-0.3,1.1-0.6,1.6-1.1L570.8,312.5z M567.9,305c0.2-0.8,0-1.5-0.4-2.2c-0.4-0.7-1.1-1.1-2-1.2c-0.5-0.1-1-0.1-1.4,0
				s-0.8,0.3-1.1,0.5c-0.3,0.2-0.6,0.5-0.8,0.8c-0.2,0.3-0.4,0.7-0.5,1L567.9,305z"/>
		</g>
		<g>
			<path fill="#616568" d="M263.5,53c-0.7-0.5-1.4-0.6-2.3-0.4c-0.3,0.1-0.6,0.2-0.8,0.4c-0.2,0.2-0.3,0.5-0.2,0.8
				c0.1,0.3,0.3,0.4,0.6,0.5c0.3,0.1,0.7,0.1,1.2,0.1c0.5,0,1,0,1.5-0.1c0.5,0,1.1,0,1.6,0.2c0.5,0.1,1,0.4,1.4,0.7
				c0.4,0.3,0.7,0.9,0.9,1.6c0.2,0.7,0.2,1.4,0,1.9c-0.2,0.6-0.5,1-0.9,1.5c-0.4,0.4-0.9,0.8-1.5,1c-0.6,0.3-1.2,0.5-1.8,0.7
				c-0.8,0.2-1.6,0.3-2.5,0.3c-0.9,0-1.7-0.2-2.4-0.6l1.5-2.9c0.4,0.3,0.9,0.5,1.3,0.6c0.5,0.1,0.9,0.1,1.5-0.1
				c0.4-0.1,0.7-0.3,1-0.5s0.4-0.5,0.3-0.8c-0.1-0.3-0.3-0.5-0.6-0.5c-0.3-0.1-0.7-0.1-1.2-0.1c-0.5,0-1,0-1.5,0.1
				c-0.5,0-1.1,0-1.6-0.1c-0.5-0.1-1-0.3-1.4-0.7c-0.4-0.3-0.7-0.9-0.9-1.6c-0.2-0.7-0.2-1.3-0.1-1.8c0.1-0.6,0.4-1,0.8-1.5
				s0.8-0.8,1.3-1.1c0.5-0.3,1.1-0.5,1.7-0.7c0.7-0.2,1.5-0.3,2.3-0.3c0.8,0,1.6,0.2,2.2,0.6L263.5,53z"/>
			<path fill="#616568" d="M268.9,41.3l2.1,7.8l0,0c0-0.2,0.1-0.5,0.2-0.8c0.1-0.3,0.3-0.5,0.5-0.8c0.2-0.2,0.5-0.5,0.8-0.7
				s0.7-0.4,1.1-0.5c0.9-0.2,1.6-0.3,2.2-0.2c0.6,0.1,1.1,0.4,1.6,0.8c0.4,0.4,0.8,0.9,1.1,1.5s0.5,1.3,0.7,2.1l1.7,6.2l-3.5,0.9
				l-1.5-5.5c-0.1-0.3-0.2-0.7-0.3-1s-0.3-0.6-0.5-0.9c-0.2-0.3-0.4-0.5-0.7-0.6c-0.3-0.1-0.7-0.1-1.1,0c-0.4,0.1-0.8,0.3-1,0.5
				c-0.2,0.2-0.4,0.5-0.5,0.8c-0.1,0.3-0.1,0.6,0,1c0,0.4,0.1,0.7,0.2,1.1l1.5,5.6l-3.5,0.9l-4.7-17.5L268.9,41.3z"/>
			<path fill="#616568" d="M290.2,52.9L290.2,52.9c-0.3,0.7-0.7,1.3-1.2,1.7c-0.6,0.4-1.2,0.7-1.9,0.9c-0.5,0.1-1.1,0.2-1.6,0.2
				c-0.5,0-1-0.1-1.5-0.3c-0.5-0.2-0.8-0.5-1.2-0.9c-0.3-0.4-0.6-0.8-0.7-1.4c-0.2-0.6-0.2-1.2-0.1-1.7s0.3-1,0.7-1.4
				c0.3-0.4,0.7-0.8,1.2-1.1c0.5-0.3,1-0.6,1.5-0.8s1.1-0.4,1.7-0.6c0.6-0.2,1.1-0.3,1.6-0.4c-0.2-0.6-0.5-1-1.1-1.3
				c-0.5-0.2-1.1-0.3-1.7-0.1c-0.6,0.2-1.1,0.4-1.5,0.8s-0.7,0.8-1,1.3l-2.4-1.4c0.5-0.8,1.1-1.4,1.9-2s1.6-0.9,2.6-1.2
				c1-0.3,1.9-0.4,2.6-0.3c0.7,0.1,1.4,0.3,1.9,0.7c0.5,0.4,1,0.9,1.3,1.6c0.3,0.7,0.6,1.5,0.9,2.4l1.5,5.7l-3.2,0.9L290.2,52.9z
				 M288.4,49.6c-0.3,0.1-0.6,0.2-1,0.3c-0.4,0.1-0.7,0.3-1.1,0.5s-0.6,0.5-0.8,0.7c-0.2,0.3-0.2,0.6-0.1,1c0.1,0.4,0.4,0.7,0.8,0.8
				c0.4,0.1,0.8,0.1,1.2,0c0.3-0.1,0.7-0.2,0.9-0.4c0.3-0.2,0.5-0.4,0.7-0.6c0.2-0.2,0.3-0.5,0.4-0.8c0.1-0.3,0.1-0.6,0-1l-0.2-0.7
				L288.4,49.6z"/>
			<path fill="#616568" d="M293.2,41.5l3.5-0.9l0.5,1.8l0,0c0.2-0.8,0.5-1.4,0.9-1.9s1-0.8,1.8-1c0.2-0.1,0.4-0.1,0.6-0.1
				c0.2,0,0.4-0.1,0.6-0.1l0.9,3.2c-0.3,0-0.5,0-0.8,0c-0.2,0-0.5,0.1-0.8,0.1c-0.7,0.2-1.2,0.4-1.5,0.7c-0.3,0.3-0.6,0.6-0.7,1
				c-0.1,0.4-0.1,0.8-0.1,1.3c0.1,0.5,0.2,1,0.3,1.6l1.3,4.7l-3.5,0.9L293.2,41.5z"/>
			<path fill="#616568" d="M315.7,45.5c-0.4,0.9-0.9,1.6-1.7,2.2c-0.7,0.6-1.6,1-2.5,1.3c-0.9,0.2-1.7,0.3-2.6,0.2
				c-0.8-0.1-1.6-0.3-2.3-0.7c-0.7-0.4-1.3-0.9-1.8-1.5s-0.9-1.4-1.1-2.3s-0.3-1.8-0.2-2.6c0.1-0.8,0.4-1.6,0.8-2.2
				c0.4-0.7,1-1.2,1.7-1.7c0.7-0.5,1.5-0.8,2.3-1.1c0.8-0.2,1.6-0.3,2.3-0.2c0.7,0.1,1.4,0.4,2,0.7c0.6,0.4,1.1,0.9,1.6,1.6
				c0.4,0.7,0.8,1.4,1,2.3l0.3,1.1l-8.1,2.2c0.3,0.6,0.8,1.1,1.3,1.3c0.6,0.3,1.2,0.3,1.9,0.1c0.6-0.2,1-0.4,1.3-0.8
				c0.3-0.4,0.6-0.8,0.8-1.3L315.7,45.5z M311.4,41.3c-0.1-0.6-0.5-1-1-1.4c-0.5-0.3-1.1-0.4-1.7-0.2c-0.4,0.1-0.7,0.3-1,0.5
				s-0.5,0.4-0.6,0.7c-0.2,0.2-0.3,0.5-0.3,0.8c0,0.3,0,0.6,0,0.9L311.4,41.3z"/>
		</g>
		<g>
			<path fill="#616568" d="M46.9,161.1c0-0.6,0.1-1.2,0.3-1.6c0.2-0.4,0.5-0.9,0.9-1.2c0.6-0.6,1.1-1.1,1.6-1.5s0.9-0.8,1.3-1.2
				c0.4-0.4,0.6-0.7,0.8-1.1c0.2-0.3,0.3-0.7,0.3-1c0-0.7-0.2-1.3-0.7-1.6c-0.4-0.4-1-0.6-1.6-0.6c-1,0-1.8,0.3-2.3,0.8
				c-0.5,0.6-0.8,1.2-0.9,2l-4.9-0.3c0.2-2.3,1.1-4,2.5-5.2c1.4-1.2,3.3-1.8,5.5-1.8c1,0,1.9,0.1,2.8,0.4c0.9,0.3,1.6,0.7,2.3,1.2
				c0.7,0.5,1.2,1.2,1.6,2c0.4,0.8,0.6,1.7,0.6,2.7c0,0.6-0.1,1.2-0.2,1.7c-0.1,0.5-0.3,1-0.7,1.5c-0.3,0.5-0.7,1-1.2,1.5
				c-0.5,0.5-1.1,1.1-1.9,1.6c-0.5,0.4-0.8,0.8-1,1.1s-0.3,0.7-0.3,1.1v0.9h-4.8V161.1z M46.4,167.2c0-0.4,0.1-0.8,0.2-1.2
				s0.4-0.7,0.6-0.9c0.3-0.3,0.6-0.5,0.9-0.6c0.4-0.1,0.7-0.2,1.2-0.2s0.8,0.1,1.2,0.2c0.4,0.1,0.7,0.4,0.9,0.6
				c0.3,0.3,0.5,0.6,0.6,0.9c0.1,0.4,0.2,0.7,0.2,1.2s-0.1,0.8-0.2,1.2c-0.1,0.4-0.4,0.7-0.6,0.9c-0.3,0.3-0.6,0.5-0.9,0.6
				c-0.4,0.1-0.7,0.2-1.2,0.2s-0.8-0.1-1.2-0.2c-0.4-0.1-0.7-0.4-0.9-0.6s-0.5-0.6-0.6-0.9C46.4,168,46.4,167.7,46.4,167.2z"/>
			<path fill="#616568" d="M60,167.2c0-0.4,0.1-0.8,0.2-1.2s0.4-0.7,0.6-0.9c0.3-0.3,0.6-0.5,0.9-0.6c0.4-0.1,0.7-0.2,1.2-0.2
				s0.8,0.1,1.2,0.2c0.4,0.1,0.7,0.4,0.9,0.6c0.3,0.3,0.5,0.6,0.6,0.9c0.1,0.4,0.2,0.7,0.2,1.2s-0.1,0.8-0.2,1.2
				c-0.1,0.4-0.4,0.7-0.6,0.9c-0.3,0.3-0.6,0.5-0.9,0.6c-0.4,0.1-0.7,0.2-1.2,0.2s-0.8-0.1-1.2-0.2c-0.4-0.1-0.7-0.4-0.9-0.6
				s-0.5-0.6-0.6-0.9C60.1,168,60,167.7,60,167.2z M65.4,162.5h-4.8v-15.2h4.8V162.5z"/>
		</g>
		<g>
			<path fill="#616568" d="M560.3,116.4l3.3-0.9l0.4,1.5l0,0c0.1-0.2,0.1-0.5,0.3-0.8s0.3-0.5,0.6-0.8c0.2-0.2,0.5-0.5,0.8-0.7
				c0.3-0.2,0.7-0.4,1.1-0.5c0.9-0.2,1.6-0.3,2.2-0.2c0.6,0.1,1.1,0.4,1.6,0.8s0.8,0.9,1.1,1.5c0.3,0.6,0.5,1.3,0.7,2.1l1.7,6.2
				l-3.5,0.9l-1.5-5.5c-0.1-0.3-0.2-0.7-0.3-1s-0.3-0.6-0.5-0.9c-0.2-0.3-0.4-0.5-0.7-0.6c-0.3-0.1-0.7-0.1-1.1,0
				c-0.4,0.1-0.8,0.3-1,0.5c-0.2,0.2-0.4,0.5-0.5,0.8c-0.1,0.3-0.1,0.6,0,1s0.1,0.7,0.2,1.1l1.5,5.6l-3.5,0.9L560.3,116.4z"/>
			<path fill="#616568" d="M586.7,119.3c-0.4,0.9-0.9,1.6-1.7,2.2c-0.7,0.6-1.6,1-2.5,1.3c-0.9,0.2-1.7,0.3-2.6,0.2
				c-0.8-0.1-1.6-0.3-2.3-0.7c-0.7-0.4-1.3-0.9-1.8-1.5s-0.9-1.4-1.1-2.3s-0.3-1.8-0.2-2.6c0.1-0.8,0.4-1.6,0.8-2.2
				c0.4-0.7,1-1.2,1.7-1.7c0.7-0.5,1.5-0.8,2.3-1.1c0.8-0.2,1.6-0.3,2.3-0.2c0.7,0.1,1.4,0.4,2,0.7c0.6,0.4,1.1,0.9,1.6,1.6
				c0.4,0.7,0.8,1.4,1,2.3l0.3,1.1l-8.1,2.2c0.3,0.6,0.8,1.1,1.3,1.3c0.6,0.3,1.2,0.3,1.9,0.1c0.6-0.2,1-0.4,1.3-0.8
				c0.3-0.4,0.6-0.8,0.8-1.3L586.7,119.3z M582.4,115.2c-0.1-0.6-0.5-1-1-1.4s-1.1-0.4-1.7-0.2c-0.4,0.1-0.7,0.3-1,0.5
				s-0.5,0.4-0.6,0.7c-0.2,0.2-0.3,0.5-0.3,0.8c0,0.3,0,0.6,0,0.9L582.4,115.2z"/>
			<path fill="#616568" d="M585.1,109.8l3.7-1l4.2,6.5l0,0l0-7.6l3.8-1l4,6.5l0,0l0.2-7.6l3.5-0.9l-1,12.3l-3.4,0.9l-4.3-6.9l0,0
				l-0.1,8l-3.5,0.9L585.1,109.8z"/>
			<path fill="#616568" d="M613,105.8c-0.7-0.5-1.4-0.6-2.3-0.4c-0.3,0.1-0.6,0.2-0.8,0.4c-0.2,0.2-0.3,0.5-0.2,0.8
				c0.1,0.3,0.3,0.4,0.6,0.5c0.3,0.1,0.7,0.1,1.2,0.1c0.5,0,1,0,1.5-0.1c0.5,0,1.1,0,1.6,0.2c0.5,0.1,1,0.4,1.4,0.7
				c0.4,0.3,0.7,0.9,0.9,1.6c0.2,0.7,0.2,1.4,0,1.9c-0.2,0.6-0.5,1-0.9,1.5c-0.4,0.4-0.9,0.8-1.5,1c-0.6,0.3-1.2,0.5-1.8,0.7
				c-0.8,0.2-1.6,0.3-2.5,0.3c-0.9,0-1.6-0.2-2.4-0.6l1.5-2.9c0.4,0.3,0.9,0.5,1.3,0.6c0.4,0.1,0.9,0.1,1.5-0.1
				c0.4-0.1,0.8-0.3,1-0.5c0.3-0.2,0.4-0.5,0.3-0.8c-0.1-0.3-0.3-0.5-0.6-0.5c-0.3-0.1-0.7-0.1-1.2-0.1c-0.5,0-1,0-1.5,0.1
				s-1.1,0-1.6-0.1c-0.5-0.1-1-0.3-1.4-0.7c-0.4-0.3-0.7-0.9-0.9-1.6c-0.2-0.7-0.2-1.3-0.1-1.8c0.1-0.6,0.4-1,0.8-1.5
				c0.4-0.4,0.8-0.8,1.3-1.1c0.5-0.3,1.1-0.5,1.7-0.7c0.7-0.2,1.5-0.3,2.3-0.3c0.8,0,1.6,0.2,2.2,0.6L613,105.8z"/>
		</g>
		<g>
			<path fill="#616568" d="M27.2,38.2c-2.7-9.9,3.8-19.9,13-22.3c9-2.4,16.9,2.2,19.1,10.5c2,7.6-1.8,12.3-6,13.4
				c-3.3,0.9-4.8-1.2-5.4-2.2c-0.9,2.6-2.8,4.4-5.2,5c-4.6,1.2-8.2-1.5-9.3-5.7c-1.6-5.8,1.6-11.8,6.8-13.1c2.5-0.7,4.8,0,6.3,1.4
				l-0.2-2.3l5.2-1.4l0.8,11.1c0.1,1.1,0.6,3.3,2.4,2.8C57,34.8,58.4,32,57,27c-2-7.5-8.5-11.1-16.4-9c-8.2,2.2-13.5,11.1-11.3,19.5
				c2.1,7.7,9.7,11.8,17.3,9.8c2.9-0.8,5.4-2.4,7.4-4.5l1.6,1.4c-2.4,2.5-5.2,4.3-8.5,5.2C38,51.8,29.5,46.6,27.2,38.2z M46.6,30.6
				c-0.5-2-2.1-3.3-4.2-2.7c-2.9,0.8-4.2,3.9-3.4,7.1c0.6,2.2,2.3,3.3,4.3,2.8C45.8,37.1,47.7,34.4,46.6,30.6z"/>
		</g>
		<g>
			<path fill="#616568" d="M107.1,333.1c-0.6-0.6-1.3-0.9-2.2-0.8c-0.3,0-0.6,0.1-0.9,0.3c-0.3,0.2-0.4,0.4-0.4,0.8
				c0,0.3,0.2,0.5,0.5,0.6c0.3,0.1,0.7,0.2,1.2,0.3s1,0.1,1.5,0.2c0.5,0.1,1,0.2,1.5,0.4c0.5,0.2,0.9,0.5,1.2,0.9
				c0.3,0.4,0.5,1,0.6,1.7c0.1,0.7,0,1.4-0.3,1.9c-0.3,0.5-0.7,0.9-1.2,1.3c-0.5,0.3-1,0.6-1.7,0.8c-0.6,0.2-1.3,0.3-1.9,0.3
				c-0.8,0.1-1.6,0-2.5-0.1c-0.9-0.2-1.6-0.5-2.2-1l2-2.6c0.4,0.4,0.8,0.7,1.2,0.8s0.9,0.2,1.5,0.2c0.4,0,0.8-0.1,1.1-0.3
				c0.3-0.1,0.5-0.4,0.4-0.7c0-0.3-0.2-0.5-0.5-0.6c-0.3-0.1-0.7-0.2-1.2-0.3c-0.5-0.1-1-0.1-1.5-0.2s-1-0.2-1.5-0.4
				c-0.5-0.2-0.9-0.5-1.2-0.9c-0.3-0.4-0.5-1-0.6-1.7c-0.1-0.7,0-1.3,0.3-1.8c0.2-0.5,0.6-1,1-1.3c0.4-0.4,0.9-0.6,1.5-0.8
				c0.6-0.2,1.2-0.3,1.8-0.4c0.8-0.1,1.5,0,2.3,0.1c0.8,0.2,1.5,0.5,2.1,1L107.1,333.1z"/>
			<path fill="#616568" d="M123.6,339.9l-3.4,0.3l-0.1-1.6l0,0c-0.1,0.2-0.3,0.5-0.4,0.7c-0.2,0.2-0.4,0.5-0.7,0.7
				c-0.3,0.2-0.6,0.4-0.9,0.5c-0.4,0.1-0.8,0.2-1.2,0.3c-0.9,0.1-1.7,0-2.2-0.2c-0.6-0.2-1.1-0.6-1.4-1c-0.4-0.5-0.6-1-0.8-1.7
				c-0.2-0.7-0.3-1.4-0.3-2.2l-0.6-6.4l3.6-0.3l0.5,5.7c0,0.3,0.1,0.7,0.1,1c0.1,0.4,0.2,0.7,0.3,1c0.1,0.3,0.4,0.5,0.6,0.7
				c0.3,0.2,0.6,0.2,1.1,0.2c0.5,0,0.8-0.2,1.1-0.3c0.3-0.2,0.5-0.4,0.6-0.7c0.1-0.3,0.2-0.6,0.2-1c0-0.4,0-0.7,0-1.1l-0.5-5.8
				l3.6-0.3L123.6,339.9z"/>
			<path fill="#616568" d="M124.8,321.6l3.6-0.3l0.7,7.7l0,0c0.4-0.6,0.9-1,1.5-1.3c0.6-0.3,1.3-0.5,2.1-0.5c0.8-0.1,1.6,0,2.3,0.3
				s1.3,0.7,1.8,1.2c0.5,0.5,0.9,1.2,1.2,1.9c0.3,0.7,0.5,1.5,0.6,2.3c0.1,0.9,0,1.7-0.2,2.5c-0.2,0.8-0.5,1.4-1,2
				c-0.5,0.6-1,1-1.7,1.4c-0.7,0.4-1.4,0.6-2.3,0.6c-0.4,0-0.8,0-1.2-0.1c-0.4-0.1-0.7-0.2-1.1-0.3c-0.3-0.1-0.6-0.3-0.9-0.5
				c-0.2-0.2-0.5-0.4-0.6-0.6l0,0l0.1,1.5l-3.3,0.3L124.8,321.6z M129.2,333.5c0.1,0.9,0.4,1.6,0.9,2.1c0.5,0.5,1.3,0.7,2.2,0.6
				c0.9-0.1,1.6-0.4,2-1c0.5-0.6,0.6-1.3,0.6-2.2c-0.1-0.9-0.4-1.6-0.9-2.1c-0.5-0.5-1.3-0.7-2.2-0.6c-0.9,0.1-1.6,0.4-2,1
				S129.1,332.7,129.2,333.5z"/>
			<path fill="#616568" d="M146.9,329.6c-0.6-0.6-1.3-0.9-2.2-0.8c-0.3,0-0.6,0.1-0.9,0.3c-0.3,0.2-0.4,0.4-0.4,0.8
				c0,0.3,0.2,0.5,0.5,0.6c0.3,0.1,0.7,0.2,1.2,0.3c0.5,0.1,1,0.1,1.5,0.2c0.5,0.1,1,0.2,1.5,0.4s0.9,0.5,1.2,0.9
				c0.3,0.4,0.5,1,0.6,1.7c0.1,0.8,0,1.4-0.3,1.9c-0.3,0.5-0.7,0.9-1.2,1.3c-0.5,0.3-1,0.6-1.7,0.8c-0.6,0.2-1.3,0.3-1.9,0.3
				c-0.8,0.1-1.6,0-2.5-0.1c-0.9-0.2-1.6-0.5-2.2-1l2-2.6c0.4,0.4,0.8,0.7,1.2,0.8s0.9,0.2,1.5,0.2c0.4,0,0.8-0.1,1.1-0.3
				s0.5-0.4,0.4-0.7c0-0.3-0.2-0.5-0.5-0.6c-0.3-0.1-0.7-0.2-1.2-0.3c-0.5-0.1-1-0.1-1.5-0.2c-0.5-0.1-1-0.2-1.5-0.4
				c-0.5-0.2-0.9-0.5-1.2-0.9c-0.3-0.4-0.5-1-0.6-1.7c-0.1-0.7,0-1.3,0.3-1.8c0.2-0.5,0.6-1,1-1.3c0.4-0.4,0.9-0.6,1.5-0.8
				c0.6-0.2,1.2-0.3,1.8-0.4c0.8-0.1,1.5,0,2.3,0.1c0.8,0.2,1.5,0.5,2.1,1L146.9,329.6z"/>
			<path fill="#616568" d="M159.2,328.8c-0.2-0.2-0.5-0.4-0.8-0.6c-0.3-0.1-0.7-0.2-1.1-0.2c-0.9,0.1-1.6,0.4-2,1
				c-0.5,0.6-0.6,1.3-0.6,2.2c0.1,0.9,0.4,1.6,0.9,2.1c0.6,0.5,1.3,0.7,2.2,0.6c0.4,0,0.7-0.2,1-0.4c0.3-0.2,0.5-0.4,0.7-0.7
				l2.6,2.3c-0.5,0.6-1.1,1.1-1.9,1.4c-0.7,0.3-1.4,0.5-2.1,0.5c-0.9,0.1-1.7,0-2.6-0.2c-0.8-0.2-1.5-0.6-2.2-1.1
				c-0.6-0.5-1.1-1.1-1.5-1.8c-0.4-0.7-0.6-1.5-0.7-2.5c-0.1-0.9,0-1.8,0.3-2.6c0.3-0.8,0.7-1.5,1.2-2c0.5-0.6,1.2-1.1,1.9-1.4
				c0.8-0.4,1.6-0.6,2.5-0.7c0.7-0.1,1.4,0,2.2,0.2c0.8,0.2,1.5,0.5,2.1,1L159.2,328.8z"/>
			<path fill="#616568" d="M162.7,324.8l3.6-0.3l0.2,1.9l0,0c0.3-0.8,0.7-1.3,1.2-1.7c0.5-0.4,1.1-0.6,1.9-0.7c0.2,0,0.4,0,0.6,0
				c0.2,0,0.4,0,0.6,0l0.3,3.3c-0.3-0.1-0.5-0.1-0.8-0.1c-0.3,0-0.5,0-0.8,0c-0.7,0.1-1.2,0.2-1.6,0.4c-0.4,0.2-0.7,0.5-0.8,0.9
				c-0.2,0.4-0.3,0.8-0.3,1.3c0,0.5,0,1,0,1.6l0.4,4.9l-3.6,0.3L162.7,324.8z"/>
			<path fill="#616568" d="M171.8,320.3c0-0.6,0.1-1.1,0.5-1.5c0.4-0.4,0.8-0.7,1.4-0.7c0.6-0.1,1.1,0.1,1.5,0.5
				c0.4,0.4,0.7,0.8,0.7,1.4c0.1,0.6-0.1,1.1-0.5,1.5c-0.4,0.4-0.8,0.7-1.4,0.7c-0.6,0-1.1-0.1-1.5-0.5
				C172.1,321.3,171.9,320.9,171.8,320.3z M172.5,323.9l3.6-0.3l1,11.6l-3.6,0.3L172.5,323.9z"/>
			<path fill="#616568" d="M178.4,316.9l3.6-0.3l0.7,7.7l0,0c0.4-0.6,0.9-1,1.5-1.3c0.6-0.3,1.3-0.5,2.1-0.5c0.8-0.1,1.6,0,2.3,0.3
				c0.7,0.3,1.3,0.7,1.8,1.2c0.5,0.5,0.9,1.2,1.2,1.9c0.3,0.7,0.5,1.5,0.6,2.3c0.1,0.9,0,1.7-0.2,2.5c-0.2,0.8-0.5,1.4-1,2
				c-0.5,0.6-1,1-1.7,1.4c-0.7,0.4-1.4,0.6-2.3,0.6c-0.4,0-0.8,0-1.2-0.1c-0.4-0.1-0.7-0.2-1.1-0.3c-0.3-0.1-0.6-0.3-0.9-0.5
				c-0.2-0.2-0.5-0.4-0.6-0.6l0,0l0.1,1.5L180,335L178.4,316.9z M182.8,328.9c0.1,0.9,0.4,1.6,0.9,2.1c0.5,0.5,1.3,0.7,2.2,0.6
				s1.6-0.4,2-1c0.5-0.6,0.6-1.3,0.6-2.2c-0.1-0.9-0.4-1.6-0.9-2.1s-1.3-0.7-2.2-0.6c-0.9,0.1-1.6,0.4-2,1S182.7,328,182.8,328.9z"
				/>
			<path fill="#616568" d="M205.4,330.7c-0.5,0.8-1.2,1.4-2,1.9c-0.8,0.5-1.7,0.8-2.7,0.8c-0.9,0.1-1.7,0-2.6-0.2
				c-0.8-0.2-1.5-0.6-2.2-1.1c-0.6-0.5-1.1-1.1-1.5-1.8c-0.4-0.7-0.6-1.5-0.7-2.5c-0.1-0.9,0-1.8,0.3-2.6c0.3-0.8,0.7-1.5,1.2-2
				c0.5-0.6,1.2-1.1,1.9-1.4c0.8-0.4,1.6-0.6,2.5-0.7c0.8-0.1,1.6,0,2.3,0.2c0.7,0.2,1.3,0.6,1.8,1.1c0.5,0.5,0.9,1.1,1.3,1.8
				c0.3,0.7,0.5,1.6,0.6,2.5l0.1,1.1l-8.3,0.7c0.2,0.7,0.6,1.2,1.1,1.6c0.5,0.4,1.1,0.5,1.8,0.5c0.6-0.1,1.1-0.2,1.5-0.5
				c0.4-0.3,0.7-0.7,1-1.1L205.4,330.7z M202,325.9c0-0.6-0.3-1.1-0.7-1.5c-0.5-0.4-1-0.6-1.7-0.5c-0.4,0-0.7,0.1-1,0.3
				s-0.5,0.3-0.7,0.6c-0.2,0.2-0.3,0.5-0.4,0.7c-0.1,0.3-0.1,0.6-0.1,0.8L202,325.9z"/>
		</g>
		<g>
			<path fill="#616568" d="M128,43c-7.2,0-13-5.8-13-13s5.8-13,13-13s13,5.8,13,13S135.2,43,128,43z M128,19c-6.1,0-11,4.9-11,11
				s4.9,11,11,11s11-4.9,11-11S134.1,19,128,19z"/>
		</g>
		<g>
			<path fill="#616568" d="M128,38.5c-1.8,0-3.5-0.8-4.8-2.4c-0.4-0.4-0.3-1.1,0.1-1.4c0.4-0.4,1.1-0.3,1.4,0.1
				c0.9,1.1,2,1.6,3.2,1.6s2.4-0.6,3.2-1.6c0.4-0.4,1-0.5,1.4-0.1c0.4,0.4,0.5,1,0.1,1.4C131.5,37.7,129.8,38.5,128,38.5z"/>
		</g>
		<g opacity="0.2">
			<circle fill="#616568" cx="121" cy="32" r="2.5"/>
		</g>
		<g>
			<path fill="#616568" d="M125.5,29c-0.6,0-1-0.4-1-1c0-1.1-0.9-2-2-2s-2,0.9-2,2c0,0.6-0.4,1-1,1s-1-0.4-1-1c0-2.2,1.8-4,4-4
				s4,1.8,4,4C126.5,28.6,126.1,29,125.5,29z"/>
		</g>
		<g>
			<path fill="#616568" d="M136.5,29c-0.6,0-1-0.4-1-1c0-1.1-0.9-2-2-2s-2,0.9-2,2c0,0.6-0.4,1-1,1s-1-0.4-1-1c0-2.2,1.8-4,4-4
				s4,1.8,4,4C137.5,28.6,137.1,29,136.5,29z"/>
		</g>
		<g opacity="0.2">
			<circle fill="#616568" cx="135" cy="32" r="2.5"/>
		</g>
		<g opacity="0.2">
			<circle fill="#616568" cx="367" cy="323.4" r="4"/>
		</g>
		<g opacity="0.2">
			<circle fill="#616568" cx="394.1" cy="316.2" r="4"/>
		</g>
		<g>
			
				<ellipse transform="matrix(0.9659 -0.2588 0.2588 0.9659 -66.2501 110.4628)" fill="#616568" cx="386.4" cy="306.8" rx="4" ry="6"/>
		</g>
		<g>
			
				<ellipse transform="matrix(0.9659 -0.2588 0.2588 0.9659 -68.0483 106.1216)" fill="#616568" cx="369" cy="311.5" rx="4" ry="6"/>
		</g>
		<g>
			<path fill="#616568" d="M379,339c-11,0-21.2-7.4-24.2-18.5l0,0c-3.6-13.3,4.4-27.1,17.7-30.6c13.3-3.6,27.1,4.4,30.6,17.7
				c3.6,13.3-4.4,27.1-17.7,30.6C383.3,338.7,381.1,339,379,339z M356.8,320c3.3,12.2,15.9,19.5,28.2,16.3
				c12.2-3.3,19.5-15.9,16.3-28.2s-15.9-19.5-28.2-16.3C360.8,295.1,353.5,307.7,356.8,320L356.8,320z"/>
		</g>
		<g>
			<path fill="#616568" d="M379.8,329.9c-2.5,0-4.9-0.7-7.2-2.1c-0.5-0.3-0.6-0.9-0.3-1.4c0.3-0.5,0.9-0.6,1.4-0.3
				c2.8,1.7,5.9,2.2,8.9,1.4c3-0.8,5.5-2.8,7-5.7c0.3-0.5,0.9-0.7,1.4-0.4c0.5,0.3,0.7,0.9,0.4,1.4c-1.8,3.4-4.7,5.7-8.3,6.7
				C382,329.8,380.9,329.9,379.8,329.9z"/>
		</g>
		<g opacity="0.5">
			<path fill="#616568" d="M507,135H387c-0.6,0-1-0.4-1-1s0.4-1,1-1h120c0.6,0,1,0.4,1,1S507.6,135,507,135z"/>
		</g>
		<g opacity="0.5">
			<path fill="#616568" d="M273,233H153c-0.6,0-1-0.4-1-1s0.4-1,1-1h120c0.6,0,1,0.4,1,1S273.6,233,273,233z"/>
		</g>
		<g opacity="0.5">
			<path fill="#616568" d="M110,255c-0.6,0-1-0.4-1-1v-72c0-0.6,0.4-1,1-1s1,0.4,1,1v72C111,254.6,110.6,255,110,255z"/>
		</g>
		<g opacity="0.5">
			<path fill="#616568" d="M71.4,92.4l-13.9-1.2c-1.7-0.1-3.1,1.1-3.3,2.7l-1.3,14.5c-0.1,0.9,1,1.4,1.6,0.9l4-3.4
				c0.4-0.3,0.9-0.5,1.5-0.5l10.1,0.9c1.7,0.1,3.1-1.1,3.3-2.7l0.7-8C74.2,94,73,92.5,71.4,92.4z"/>
		</g>
		<g>
			<path fill="#616568" d="M568.7,88.8c-0.7,0-1.4-0.2-1.9-0.7c-0.6-0.5-1-1.2-1.1-2c-0.1-1.6,1.1-3.1,2.7-3.2
				c1.7-0.1,3.1,1.1,3.3,2.7c0.1,0.8-0.2,1.6-0.7,2.2s-1.2,1-2,1.1C568.9,88.8,568.8,88.8,568.7,88.8z M568.7,84.8
				C568.7,84.8,568.6,84.8,568.7,84.8c-0.6,0.1-1,0.5-1,1.1c0,0.3,0.1,0.5,0.4,0.7s0.5,0.3,0.7,0.2l0,0c0.3,0,0.5-0.1,0.7-0.4
				c0.2-0.2,0.3-0.5,0.2-0.7C569.7,85.2,569.2,84.8,568.7,84.8z"/>
		</g>
		<g opacity="0.2">
			<path fill="#616568" d="M373.3,60.8L373.3,60.8c-2.4-0.6-3.8-3.1-3.2-5.5l3.8-14l8.7,2.3l-3.8,14C378.2,60,375.7,61.5,373.3,60.8
				z"/>
		</g>
		<g>
			<path fill="#616568" d="M265.7,319c-0.6,0-1.2-0.2-1.7-0.5c-0.7-0.5-1.1-1.1-1.2-1.9l0,0c-0.3-1.6,0.8-3.2,2.4-3.5
				c1.6-0.3,3.2,0.8,3.5,2.4c0.3,1.6-0.8,3.2-2.4,3.5C266,319,265.8,319,265.7,319z M264.7,316.2c0,0.3,0.2,0.5,0.4,0.6
				c0.2,0.2,0.5,0.2,0.7,0.2c0.5-0.1,0.9-0.6,0.8-1.2c-0.1-0.5-0.6-0.9-1.2-0.8C264.9,315.1,264.6,315.6,264.7,316.2L264.7,316.2z"
				/>
		</g>
		<g>
			<path fill="#616568" d="M57.7,242.8c-0.6,0-1.2-0.2-1.7-0.5c-0.7-0.5-1.1-1.1-1.2-1.9c-0.3-1.6,0.8-3.2,2.4-3.5
				c0.8-0.1,1.6,0,2.2,0.5c0.7,0.5,1.1,1.1,1.2,1.9c0.3,1.6-0.8,3.2-2.4,3.5C58,242.8,57.9,242.8,57.7,242.8z M57.7,238.8
				c-0.1,0-0.1,0-0.2,0c-0.5,0.1-0.9,0.6-0.8,1.2c0,0.3,0.2,0.5,0.4,0.6c0.2,0.2,0.5,0.2,0.7,0.2c0.3,0,0.5-0.2,0.6-0.4
				c0.2-0.2,0.2-0.5,0.2-0.7c0-0.3-0.2-0.5-0.4-0.6C58.1,238.8,57.9,238.8,57.7,238.8z"/>
		</g>
		<g opacity="0.2">
			
				<rect x="39" y="201.1" transform="matrix(0.9848 -0.1736 0.1736 0.9848 -37.1382 12.6906)" fill="#616568" width="30" height="35"/>
		</g>
		<g>
			<path fill="#616568" d="M323.7,275.6c-0.4,0-0.8-0.1-1.1-0.4c-0.6-0.4-0.9-1.1-0.7-1.8l1-5.6l-4.1-4c-0.5-0.5-0.7-1.2-0.5-1.9
				c0.2-0.7,0.8-1.2,1.5-1.3l5.7-0.8l2.5-5.1c0.3-0.6,1-1,1.7-1c0.7,0,1.4,0.4,1.7,1l2.5,5.1l5.7,0.8c0.7,0.1,1.3,0.6,1.5,1.3
				s0,1.4-0.5,1.9l-4.1,4l1,5.6c0.1,0.7-0.2,1.4-0.7,1.8c-0.6,0.4-1.3,0.5-2,0.1l-5.1-2.7l-5.1,2.7
				C324.3,275.5,324,275.6,323.7,275.6z M320.3,262.5l4,3.9c0.4,0.4,0.6,1,0.5,1.7l-0.9,5.4l4.9-2.6c0.5-0.3,1.2-0.3,1.7,0l4.9,2.6
				l-0.9-5.4c-0.1-0.6,0.1-1.2,0.5-1.7l4-3.9l-5.5-0.8c-0.6-0.1-1.1-0.5-1.4-1l-2.4-5l-2.4,5c-0.3,0.6-0.8,0.9-1.4,1L320.3,262.5z
				 M329.6,272.7C329.6,272.7,329.6,272.7,329.6,272.7L329.6,272.7C329.6,272.7,329.6,272.7,329.6,272.7z"/>
		</g>
		<g>
			<path fill="#616568" d="M418.1,105.6c-0.3,0-0.5-0.1-0.8-0.2l-4-2.1l-4,2.1c-0.6,0.3-1.3,0.3-1.8-0.1c-0.5-0.4-0.8-1-0.7-1.7
				l0.8-4.4l-3.2-3.1c-0.5-0.5-0.6-1.1-0.4-1.7s0.7-1.1,1.4-1.2l4.4-0.6l2-4c0.3-0.6,0.9-0.9,1.5-0.9h0c0.7,0,1.2,0.4,1.5,0.9l2,4
				l4.4,0.6c0.6,0.1,1.2,0.5,1.4,1.2c0.2,0.6,0,1.3-0.4,1.7l-3.2,3.1l0.8,4.4c0.1,0.6-0.1,1.3-0.7,1.7
				C418.8,105.5,418.5,105.6,418.1,105.6z M406.3,95.1l2.9,2.8c0.4,0.4,0.6,1,0.5,1.5l-0.7,4l3.6-1.9c0.5-0.3,1.1-0.3,1.6,0l3.6,1.9
				l-0.7-4c-0.1-0.5,0.1-1.1,0.5-1.5l2.9-2.8l-4-0.6c-0.6-0.1-1-0.4-1.3-0.9l-1.8-3.6l-1.8,3.6c-0.2,0.5-0.7,0.8-1.3,0.9L406.3,95.1
				z M413.5,103.2C413.5,103.2,413.5,103.2,413.5,103.2L413.5,103.2C413.5,103.2,413.5,103.2,413.5,103.2z"/>
		</g>
		<g>
			<path fill="#616568" d="M593,240v1v5v8.5c-0.7-0.3-1.6-0.5-2.5-0.5c-2.5,0-4.5,1.3-4.5,3s2,3,4.5,3s4.5-1.3,4.5-3v-11.5l13-3.1v8
				c-0.7-0.3-1.6-0.5-2.5-0.5c-2.5,0-4.5,1.3-4.5,3s2,3,4.5,3s4.5-1.3,4.5-3v-11v-3v-3L593,240z"/>
		</g>
		<g>
			<circle fill="#616568" cx="80" cy="85.1" r="6"/>
		</g>
		<g>
			<path fill="#616568" d="M469,340.9c-0.3,0-0.5,0-0.8-0.1c-0.8-0.2-1.4-0.7-1.8-1.4l-8-13.9l0,0c-2.5-4.4-3.2-9.5-1.9-14.4
				s4.5-9,8.9-11.5c9.1-5.2,20.7-2.1,26,7c2.5,4.4,3.2,9.5,1.9,14.4c-1.3,4.9-4.5,9-8.9,11.5l-13.9,8
				C470,340.7,469.5,340.9,469,340.9z M460.1,324.5l8,13.9c0.1,0.2,0.3,0.4,0.6,0.5c0.3,0.1,0.5,0,0.8-0.1l13.9-8
				c3.9-2.3,6.7-5.9,7.9-10.3c1.2-4.4,0.6-9-1.7-12.9c-4.7-8.1-15.1-10.9-23.2-6.2C458.2,306,455.4,316.4,460.1,324.5L460.1,324.5z"
				/>
		</g>
		<g>
			<path fill="#616568" d="M474.9,323c-2.4,0-4.8-1.3-6.1-3.5l0,0c-1.9-3.3-0.8-7.6,2.6-9.6c1.6-0.9,3.5-1.2,5.3-0.7
				c1.8,0.5,3.3,1.6,4.3,3.3c0.9,1.6,1.2,3.5,0.7,5.3c-0.5,1.8-1.6,3.3-3.3,4.2C477.3,322.7,476.1,323,474.9,323z M470.5,318.5
				c0.7,1.2,1.7,2,3,2.3c1.3,0.3,2.6,0.2,3.8-0.5c1.2-0.7,2-1.7,2.3-3s0.2-2.6-0.5-3.8c-1.4-2.4-4.4-3.2-6.8-1.8
				C470,313.1,469.1,316.1,470.5,318.5L470.5,318.5z"/>
		</g>
		<g>
			<path fill="#616568" d="M114.1,288.5l-2.1-3.7c-0.3-0.5-0.7-0.8-1.2-0.9l-6.4-1.7l3.4-7.8c0.5-1.1,0.5-2.3-0.1-3.3
				s-1.4-1.8-2.6-2.1l-0.6-0.2c-0.2,0-0.3-0.1-0.5-0.1c-0.7,0-1.4,0.4-1.7,1l-1.9,3.4l-6.5,6.8l-0.6,0.1l0.2-0.7
				c0.1-0.5-0.2-1.1-0.7-1.2l-12.6-3.4c-0.3-0.1-0.5,0-0.8,0.1c-0.2,0.1-0.4,0.4-0.5,0.6l-5.4,20.3c-0.1,0.3,0,0.5,0.1,0.8
				c0.1,0.2,0.4,0.4,0.6,0.5l12.6,3.4c0.1,0,0.2,0,0.3,0c0.4,0,0.8-0.3,1-0.7l0.3-1.1l1.1,1.9c0.3,0.5,0.7,0.8,1.2,0.9l12.6,3.4
				c0.2,0,0.3,0.1,0.5,0.1c0.3,0,0.7-0.1,1-0.3l3.7-2.1c0.4-0.2,0.6-0.5,0.8-0.9l5-11.1C114.5,289.8,114.5,289.1,114.1,288.5z
				 M86.3,298.1l-10.6-2.8l4.9-18.4l10.6,2.8l-2.3,8.4l-1.9,7c0,0,0,0,0,0L86.3,298.1z M107.4,300.6l-3.7,2.1l-12.6-3.4l-2.1-3.7
				l3.6-13.5l2.2-0.4l7.2-7.4l2-3.6l0.6,0.2c1.2,0.3,1.8,1.6,1.3,2.7l-3.4,7.8c-0.5,1.1,0.1,2.4,1.3,2.7l6.4,1.7l2.1,3.7
				L107.4,300.6z"/>
			<path fill="#616568" d="M84.2,292.3c-0.8-0.2-1.6,0.3-1.8,1.1c-0.2,0.8,0.3,1.6,1.1,1.8c0.8,0.2,1.6-0.3,1.8-1.1
				C85.5,293.4,85,292.5,84.2,292.3z"/>
		</g>
		<g>
			<path fill="#616568" d="M162,251v5h5v4h-5v5h-4v-5h-5v-4h5v-5H162 M162,249h-4c-1.1,0-2,0.9-2,2v3h-3c-1.1,0-2,0.9-2,2v4
				c0,1.1,0.9,2,2,2h3v3c0,1.1,0.9,2,2,2h4c1.1,0,2-0.9,2-2v-3h3c1.1,0,2-0.9,2-2v-4c0-1.1-0.9-2-2-2h-3v-3
				C164,249.9,163.1,249,162,249L162,249z"/>
		</g>
		<g>
			<path fill="#616568" d="M580.2,193c-1.3,0-2.5-0.3-3.7-1c-2.2-1.3-3.6-3.5-3.6-6V160c0-2.5,1.3-4.7,3.6-6
				c2.3-1.3,5.2-1.3,7.5,0.1l21.5,13c2.1,1.3,3.4,3.5,3.4,5.9s-1.3,4.6-3.4,5.9l-21.5,13C582.9,192.6,581.6,193,580.2,193z
				 M580.2,155c-0.9,0-1.8,0.2-2.7,0.7c-1.6,0.9-2.6,2.5-2.6,4.3V186c0,1.8,1,3.4,2.6,4.3c1.7,1,3.8,0.9,5.5-0.1l21.5-13
				c1.5-0.9,2.4-2.5,2.4-4.2s-0.9-3.3-2.4-4.2l-21.5-13C582.2,155.3,581.2,155,580.2,155z"/>
		</g>
		<path fill="#616568" d="M453.6,261.8c-0.1-0.2-0.4-0.4-0.6-0.5l-8.7-2.3c-0.3-0.1-0.5,0-0.8,0.1s-0.4,0.4-0.5,0.6l0,0.2l-0.3-0.5
			l-1.5-5.3l-0.4-2.1c-0.2-0.7-0.7-1.3-1.4-1.5l-0.7-0.2c-0.3-0.1-0.5-0.1-0.8-0.1c-1.6,0-3,1.3-3,3l-0.1,4.4l-3.3-0.9
			c-0.2,0-0.3-0.1-0.5-0.1c-0.3,0-0.7,0.1-1,0.3l-2.4,1.4c-0.5,0.3-0.9,0.9-1,1.5l-0.8,7c-0.1,0.4,0,0.9,0.3,1.2l1.4,2.4
			c0.3,0.5,0.7,0.8,1.2,0.9l8.7,2.3c0.2,0,0.3,0.1,0.5,0.1c0.3,0,0.7-0.1,1-0.3l0.7-0.4l-0.3,1.1c-0.1,0.5,0.2,1.1,0.7,1.2l8.7,2.3
			c0.1,0,0.2,0,0.3,0c0.4,0,0.8-0.3,1-0.7l3.9-14.5C453.8,262.3,453.8,262,453.6,261.8z M437.8,271.7l-8.7-2.3l-1.4-2.4l0.8-7
			l2.4-1.4l4.6,1.2c0.1,0,0.2,0,0.3,0c0.5,0,1-0.4,1-1l0.1-5.7c0-0.6,0.5-1,1-1c0.1,0,0.2,0,0.3,0l0.7,0.2l0.4,2.2l1.6,5.6l1.4,2.4
			l-2.1,7.7L437.8,271.7z M448.2,275.5l-6.8-1.8l2.6-9.8l0.2-0.8c0,0,0,0,0,0l0.5-1.9l6.8,1.8L448.2,275.5z"/>
		<g opacity="0.5">
			<g>
				<path fill="#616568" d="M452.9,275.7c-0.1,0-0.2,0-0.3,0c-0.5-0.1-0.8-0.7-0.7-1.2l3.4-12.6c0.1-0.5-0.2-1.1-0.7-1.2l-4.5-1.2
					c-0.5-0.1-0.8-0.7-0.7-1.2s0.7-0.8,1.2-0.7l4.5,1.2c1.6,0.4,2.5,2.1,2.1,3.7l-3.4,12.6C453.7,275.5,453.3,275.7,452.9,275.7z"/>
			</g>
		</g>
		<path fill="#616568" d="M77.4,236.3l-6.9-39.4c-0.2-1.3-1-2.5-2.1-3.2c-1.1-0.8-2.4-1.1-3.7-0.8l-29.5,5.2c-1.3,0.2-2.5,1-3.2,2.1
			c-0.8,1.1-1.1,2.4-0.8,3.7l6.9,39.4c0.2,1.3,1,2.5,2.1,3.2c0.9,0.6,1.8,0.9,2.9,0.9c0.3,0,0.6,0,0.9-0.1l18.7-3.3l1.4,7.9
			c0.1,0.4,0.3,0.6,0.7,0.8c0.1,0,0.2,0.1,0.3,0.1c0.2,0,0.5-0.1,0.7-0.2l3.9-3.4l4.9,1.9c0.3,0.1,0.7,0.1,1-0.2
			c0.3-0.2,0.4-0.6,0.3-0.9l-1.4-8c0.9-0.4,1.7-1,2.3-1.8C77.3,238.9,77.6,237.6,77.4,236.3z M69.6,246.9c-0.3-0.1-0.7-0.1-1,0.2
			l-3.1,2.7l-2.5-14l7.9-1.4l2.5,14L69.6,246.9z M43,237.3l-5.7-32.5l27.6-4.9l5.7,32.5L43,237.3z M74.9,238.9
			c-0.3,0.4-0.6,0.7-1,0.9l-1.2-6.7l-6.1-34.5c0-0.3-0.2-0.5-0.4-0.6c-0.2-0.2-0.5-0.2-0.7-0.2L36,203c-0.5,0.1-0.9,0.6-0.8,1.2
			l6.1,34.5c0.1,0.5,0.5,0.8,1,0.8c0.1,0,0.1,0,0.2,0l18.7-3.3l1,5.9l-18.7,3.3c-0.8,0.1-1.6,0-2.2-0.5c-0.7-0.5-1.1-1.1-1.2-1.9
			L33,203.5c-0.1-0.8,0-1.6,0.5-2.2c0.5-0.7,1.1-1.1,1.9-1.2l29.5-5.2c0.2,0,0.4,0,0.5,0c0.6,0,1.2,0.2,1.7,0.5
			c0.7,0.5,1.1,1.1,1.2,1.9l6.9,39.4C75.6,237.4,75.4,238.2,74.9,238.9z"/>
		<g>
			
				<ellipse transform="matrix(0.9962 -8.715574e-02 8.715574e-02 0.9962 -0.4933 50.4449)" fill="#616568" cx="577.4" cy="30.9" rx="2.5" ry="4"/>
		</g>
		<g>
			
				<ellipse transform="matrix(0.9962 -8.715574e-02 8.715574e-02 0.9962 -0.368 51.3963)" fill="#616568" cx="588.4" cy="29.9" rx="2.5" ry="4"/>
		</g>
		<g>
			<path fill="#616568" d="M583.4,44.4c-2.3,0-4.5-1-6.3-2.8c-0.4-0.4-0.4-1,0-1.4c0.4-0.4,1-0.4,1.4,0c1.6,1.6,3.5,2.3,5.4,2.2
				c2-0.2,3.7-1.3,5-3.1c0.3-0.5,0.9-0.6,1.4-0.3c0.5,0.3,0.6,0.9,0.3,1.4c-1.6,2.3-3.9,3.7-6.5,3.9
				C583.9,44.4,583.7,44.4,583.4,44.4z"/>
		</g>
		<g opacity="0.2">
			<circle fill="#616568" cx="592.4" cy="35.6" r="3"/>
		</g>
		<g opacity="0.2">
			<circle fill="#616568" cx="574.5" cy="37.2" r="3"/>
		</g>
		<g>
			<g>
				<rect x="422" y="43" fill="#616568" width="36" height="1"/>
			</g>
			<g opacity="0.75">
				<g>
					<rect x="424" y="32" fill="#616568" width="2" height="10"/>
				</g>
			</g>
			<g opacity="0.5">
				<g>
					<rect x="424" y="25" fill="#616568" width="2" height="2"/>
				</g>
			</g>
			<g opacity="0.5">
				<g>
					<rect x="424" y="22" fill="#616568" width="2" height="1"/>
				</g>
			</g>
			<g opacity="0.5">
				<g>
					<rect x="427" y="27" fill="#616568" width="2" height="1"/>
				</g>
			</g>
			<g opacity="0.5">
				<g>
					<rect x="430" y="29" fill="#616568" width="2" height="1"/>
				</g>
			</g>
			<g opacity="0.5">
				<g>
					<rect x="433" y="21" fill="#616568" width="2" height="1"/>
				</g>
			</g>
			<g opacity="0.5">
				<g>
					<rect x="436" y="26" fill="#616568" width="2" height="1"/>
				</g>
			</g>
			<g opacity="0.5">
				<g>
					<rect x="439" y="20" fill="#616568" width="2" height="1"/>
				</g>
			</g>
			<g opacity="0.5">
				<g>
					<rect x="442" y="24" fill="#616568" width="2" height="1"/>
				</g>
			</g>
			<g opacity="0.5">
				<g>
					<rect x="445" y="33" fill="#616568" width="2" height="1"/>
				</g>
			</g>
			<g opacity="0.5">
				<g>
					<rect x="448" y="29" fill="#616568" width="2" height="1"/>
				</g>
			</g>
			<g opacity="0.5">
				<g>
					<rect x="451" y="22" fill="#616568" width="2" height="1"/>
				</g>
			</g>
			<g opacity="0.5">
				<g>
					<rect x="454" y="28" fill="#616568" width="2" height="1"/>
				</g>
			</g>
			<g opacity="0.35">
				<g>
					<rect x="424" y="28" fill="#616568" width="2" height="3"/>
				</g>
			</g>
			<g opacity="0.75">
				<g>
					<rect x="427" y="39" fill="#616568" width="2" height="3"/>
				</g>
			</g>
			<g opacity="0.5">
				<g>
					<rect x="427" y="31" fill="#616568" width="2" height="2"/>
				</g>
			</g>
			<g opacity="0.35">
				<g>
					<rect x="427" y="35" fill="#616568" width="2" height="3"/>
				</g>
			</g>
			<g opacity="0.75">
				<g>
					<rect x="430" y="39" fill="#616568" width="2" height="3"/>
				</g>
			</g>
			<g opacity="0.5">
				<g>
					<rect x="430" y="32" fill="#616568" width="2" height="2"/>
				</g>
			</g>
			<g opacity="0.35">
				<g>
					<rect x="430" y="35" fill="#616568" width="2" height="3"/>
				</g>
			</g>
			<g opacity="0.75">
				<g>
					<rect x="433" y="32" fill="#616568" width="2" height="10"/>
				</g>
			</g>
			<g opacity="0.5">
				<g>
					<rect x="433" y="24" fill="#616568" width="2" height="3"/>
				</g>
			</g>
			<g opacity="0.35">
				<g>
					<rect x="433" y="28" fill="#616568" width="2" height="3"/>
				</g>
			</g>
			<g opacity="0.75">
				<g>
					<rect x="436" y="36" fill="#616568" width="2" height="6"/>
				</g>
			</g>
			<g opacity="0.5">
				<g>
					<rect x="436" y="29" fill="#616568" width="2" height="2"/>
				</g>
			</g>
			<g opacity="0.35">
				<g>
					<rect x="436" y="32" fill="#616568" width="2" height="3"/>
				</g>
			</g>
			<g opacity="0.75">
				<g>
					<rect x="439" y="30" fill="#616568" width="2" height="12"/>
				</g>
			</g>
			<g opacity="0.5">
				<g>
					<rect x="439" y="23" fill="#616568" width="2" height="2"/>
				</g>
			</g>
			<g opacity="0.35">
				<g>
					<rect x="439" y="26" fill="#616568" width="2" height="3"/>
				</g>
			</g>
			<g opacity="0.75">
				<g>
					<rect x="442" y="34" fill="#616568" width="2" height="8"/>
				</g>
			</g>
			<g opacity="0.5">
				<g>
					<rect x="442" y="27" fill="#616568" width="2" height="2"/>
				</g>
			</g>
			<g opacity="0.35">
				<g>
					<rect x="442" y="30" fill="#616568" width="2" height="3"/>
				</g>
			</g>
			<g opacity="0.75">
				<g>
					<rect x="445" y="41" fill="#616568" width="2" height="1"/>
				</g>
			</g>
			<g opacity="0.5">
				<g>
					<rect x="445" y="36" fill="#616568" width="2" height="1"/>
				</g>
			</g>
			<g opacity="0.35">
				<g>
					<rect x="445" y="38" fill="#616568" width="2" height="2"/>
				</g>
			</g>
			<g opacity="0.75">
				<g>
					<rect x="448" y="39" fill="#616568" width="2" height="3"/>
				</g>
			</g>
			<g opacity="0.5">
				<g>
					<rect x="448" y="32" fill="#616568" width="2" height="2"/>
				</g>
			</g>
			<g opacity="0.35">
				<g>
					<rect x="448" y="35" fill="#616568" width="2" height="3"/>
				</g>
			</g>
			<g opacity="0.75">
				<g>
					<rect x="451" y="32" fill="#616568" width="2" height="10"/>
				</g>
			</g>
			<g opacity="0.5">
				<g>
					<rect x="451" y="25" fill="#616568" width="2" height="2"/>
				</g>
			</g>
			<g opacity="0.35">
				<g>
					<rect x="451" y="28" fill="#616568" width="2" height="3"/>
				</g>
			</g>
			<g opacity="0.75">
				<g>
					<rect x="454" y="38" fill="#616568" width="2" height="4"/>
				</g>
			</g>
			<g opacity="0.5">
				<g>
					<rect x="454" y="31" fill="#616568" width="2" height="2"/>
				</g>
			</g>
			<g opacity="0.35">
				<g>
					<rect x="454" y="34" fill="#616568" width="2" height="3"/>
				</g>
			</g>
		</g>
		<path fill="#616568" d="M554.7,223.4l-12.2-5.2c-0.3-0.1-0.5-0.4-0.6-0.7l-2.6-13c-0.2-1.1-1.1-2-2.2-2.3c-1.1-0.3-2.3,0.1-3,0.9
			l-7.2,8.2V146c0-5-4-9-9-9H134.8c-0.9-5.8-5.8-10.1-11.8-10.1c-3.3,0-6.6,1.4-9,3.7c-2.4-2.3-5.7-3.7-9-3.7c-6.7,0-12,5.3-12,12
			c0,8,6.9,14.3,17.4,23.8l2.6,2.3v75.7c0,1.6,0.9,3.1,2.5,3.7c0.5,0.2,1,0.3,1.6,0.3c1,0,2-0.4,2.8-1.2l13.1-13.1
			c0.9-0.9,2.2-1.5,3.5-1.5h378.6l-5.4,11.6c-0.5,1-0.3,2.2,0.4,3.1c0.7,0.9,1.9,1.3,3,1l12.9-2.9c0.3-0.1,0.7,0,0.9,0.2l9.7,9
			c0.6,0.5,1.3,0.8,2,0.8c0.4,0,0.7-0.1,1.1-0.2c1.1-0.4,1.8-1.4,1.9-2.5l1.2-13.2c0-0.3,0.2-0.6,0.5-0.8l11.6-6.5
			c1-0.6,1.6-1.6,1.5-2.8C556.5,224.8,555.8,223.8,554.7,223.4z M95,138.9c0-5.6,4.4-10,10-10c3.1,0,6.2,1.4,8.2,3.8
			c0.4,0.4,1.1,0.4,1.5,0c2-2.4,5.1-3.8,8.2-3.8c5.6,0,10,4.4,10,10c0,7.1-6.6,13.1-16.7,22.3l-2.3,2.1l-2.3-2.1
			C101.7,152,95,146,95,138.9z M131.5,229.1l-13.1,13.1c-0.6,0.6-1.4,0.8-2.2,0.4c-0.8-0.3-1.2-1-1.2-1.8V165l2.6-2.4
			c10.4-9.4,17.3-15.7,17.3-23.6h383c3.9,0,7,3.1,7,7v67.3c-0.1,0.1-0.3,0.1-0.5,0.1l-13.2-1.6c-1.1-0.1-2.2,0.4-2.9,1.3
			c-0.6,1-0.7,2.2-0.1,3.2l6.4,10.7H136.5C134.6,227,132.9,227.7,131.5,229.1z M554,227l-11.6,6.5c-0.9,0.5-1.4,1.4-1.5,2.3
			l-1.2,13.2c0,0.4-0.3,0.7-0.6,0.8c-0.4,0.1-0.8,0.1-1-0.2l-9.7-9c-0.6-0.5-1.3-0.8-2-0.8c-0.2,0-0.4,0-0.7,0.1c0,0,0,0,0,0
			l-12.9,2.9c-0.4,0.1-0.8,0-1-0.3c-0.2-0.3-0.3-0.7-0.1-1l5.5-12c0.4-0.9,0.4-1.9-0.1-2.8l-6.8-11.4c-0.2-0.3-0.2-0.7,0-1.1
			c0.2-0.3,0.6-0.5,1-0.4l13.2,1.6c1,0.1,2-0.3,2.6-1l8.7-10c0.3-0.3,0.6-0.4,1-0.3c0.4,0.1,0.6,0.4,0.7,0.8l2.6,13
			c0.2,1,0.8,1.8,1.8,2.2l12.2,5.2c0.4,0.2,0.6,0.5,0.6,0.9S554.3,226.8,554,227z"/>
		<path fill="#616568" d="M216,270c-9.4,0-17,7.6-17,17s7.6,17,17,17s17-7.6,17-17S225.4,270,216,270z M225.7,286
			c-0.1-1.8-0.3-3.5-0.6-5.1c3.1,1.2,5.2,3,5.8,5.1H225.7z M223.7,286H217v-6.7c2.1,0.1,4.1,0.4,5.8,0.9
			C223.3,281.9,223.6,283.9,223.7,286z M217,277.3v-5.2c2,0.5,3.9,2.7,5.1,5.8C220.5,277.6,218.8,277.4,217,277.3z M215,272.1v5.2
			c-1.8,0.1-3.5,0.3-5.1,0.6C211.1,274.8,213,272.7,215,272.1z M215,279.3v6.7h-6.7c0.1-2.1,0.4-4.1,0.9-5.8
			C210.9,279.7,212.9,279.4,215,279.3z M206.3,286h-5.2c0.5-2,2.7-3.9,5.8-5.1C206.6,282.5,206.4,284.2,206.3,286z M206.3,288
			c0.1,1.8,0.3,3.5,0.6,5.1c-3.1-1.2-5.2-3-5.8-5.1H206.3z M208.3,288h6.7v6.7c-2.1-0.1-4.1-0.4-5.8-0.9
			C208.7,292.1,208.4,290.1,208.3,288z M215,296.7v5.2c-2-0.5-3.9-2.7-5.1-5.8C211.5,296.4,213.2,296.6,215,296.7z M217,301.9v-5.2
			c1.8-0.1,3.5-0.3,5.1-0.6C220.9,299.2,219,301.3,217,301.9z M217,294.7V288h6.7c-0.1,2.1-0.4,4.1-0.9,5.8
			C221.1,294.3,219.1,294.6,217,294.7z M225.7,288h5.2c-0.5,2-2.7,3.9-5.8,5.1C225.4,291.5,225.6,289.8,225.7,288z M229.9,281.3
			c-1.4-1.1-3.3-2.1-5.4-2.8c-0.7-2.2-1.6-4-2.8-5.4C225.4,274.6,228.4,277.6,229.9,281.3z M210.3,273.1c-1.1,1.4-2.1,3.3-2.8,5.4
			c-2.2,0.7-4,1.6-5.4,2.8C203.6,277.6,206.6,274.6,210.3,273.1z M202.1,292.7c1.4,1.1,3.3,2.1,5.4,2.8c0.7,2.2,1.6,4,2.8,5.4
			C206.6,299.4,203.6,296.4,202.1,292.7z M221.7,300.9c1.1-1.4,2.1-3.3,2.8-5.4c2.2-0.7,4-1.6,5.4-2.8
			C228.4,296.4,225.4,299.4,221.7,300.9z"/>
		<g>
			<g>
				<path fill="#616568" d="M333.5,78c6.3,0,11.5,5.2,11.5,11.5s-5.2,11.5-11.5,11.5S322,95.8,322,89.5S327.2,78,333.5,78 M333.5,76
					C326,76,320,82,320,89.5s6,13.5,13.5,13.5S347,97,347,89.5S341,76,333.5,76L333.5,76z"/>
			</g>
			<g opacity="0.5">
				<path fill="#616568" d="M357,125.2c-0.8,0-1.5-0.3-2.1-0.9l-7.6-7.6c-0.4-0.4-0.4-1,0-1.4s1-0.4,1.4,0l7.6,7.6
					c0.4,0.4,1,0.4,1.4,0l3.6-3.6c0.4-0.4,1-0.4,1.4,0s0.4,1,0,1.4l-3.6,3.6C358.5,124.9,357.8,125.2,357,125.2z"/>
			</g>
		</g>
		<g>
			<path fill="#616568" d="M216,85h-36c-1.7,0-3-1.3-3-3V46c0-1.7,1.3-3,3-3h36c1.7,0,3,1.3,3,3v36C219,83.7,217.7,85,216,85z
				 M180,45c-0.6,0-1,0.4-1,1v36c0,0.6,0.4,1,1,1h36c0.6,0,1-0.4,1-1V46c0-0.6-0.4-1-1-1H180z"/>
		</g>
		<g opacity="0.5">
			<g>
				<path fill="#616568" d="M218,89h-34c-0.6,0-1-0.4-1-1s0.4-1,1-1h34c1.7,0,3-1.3,3-3v-8c0-0.6,0.4-1,1-1s1,0.4,1,1v8
					C223,86.8,220.8,89,218,89z"/>
			</g>
		</g>
		<g>
			<path fill="#616568" d="M373.8,61.9c-0.1,0-0.2,0-0.3,0l-1-0.3c0,0,0,0,0,0l-18.3-4.9c-1.3-0.3-2.4-1.2-3-2.3s-0.8-2.5-0.5-3.8
				l6.2-23.2c0,0,0,0,0,0c0.4-1.6,2.1-2.5,3.7-2.1l14.5,3.9c0.8,0.2,1.4,0.7,1.8,1.4c0.4,0.7,0.5,1.5,0.3,2.3L371,56
				c-0.2,0.8-0.1,1.6,0.3,2.3c0.4,0.7,1,1.2,1.8,1.4l1,0.3c0.5,0.1,0.8,0.7,0.7,1.2C374.6,61.7,374.2,61.9,373.8,61.9z M358.8,27.9
				l-6.2,23.2c-0.2,0.8-0.1,1.6,0.3,2.3c0.4,0.7,1,1.2,1.8,1.4l14.5,3.9c-0.4-1-0.5-2.1-0.2-3.2l6.2-23.2c0.1-0.3,0-0.5-0.1-0.8
				c-0.1-0.2-0.3-0.4-0.6-0.5L360,27.2C359.5,27.1,359,27.4,358.8,27.9L358.8,27.9z"/>
		</g>
		<g opacity="0.5">
			<g>
				<path fill="#616568" d="M351,37.9c-0.1,0-0.2,0-0.3,0c-0.5-0.1-0.8-0.7-0.7-1.2l3.3-12.3c0.7-2.7,3.5-4.2,6.1-3.5l5.8,1.5
					c0.5,0.1,0.8,0.7,0.7,1.2c-0.1,0.5-0.7,0.9-1.2,0.7l-5.8-1.5c-1.6-0.4-3.2,0.5-3.7,2.1L352,37.2C351.9,37.6,351.5,37.9,351,37.9
					z"/>
			</g>
		</g>
		<g>
			<path fill="#616568" d="M375.1,62.1c-0.5,0-1-0.1-1.6-0.2l0.5-1.9c1,0.3,2.1,0.1,3-0.4c0.9-0.5,1.6-1.4,1.9-2.4l3.4-12.6
				c0.1-0.3,0-0.5-0.1-0.8c-0.1-0.2-0.3-0.4-0.6-0.5l-7.7-2.1l0.5-1.9l7.7,2.1c0.8,0.2,1.4,0.7,1.8,1.4c0.4,0.7,0.5,1.5,0.3,2.3
				l-3.4,12.6c-0.4,1.5-1.4,2.8-2.8,3.6C377.2,61.8,376.1,62.1,375.1,62.1z"/>
		</g>
		<g>
			<path fill="#616568" d="M179.7,83.7l-1.4-1.4l17-17c0.4-0.4,1-0.4,1.4,0l7.3,7.3l5.3-5.3c0.4-0.4,1-0.4,1.4,0l8,8l-1.4,1.4
				l-7.3-7.3l-5.3,5.3c-0.4,0.4-1,0.4-1.4,0l-7.3-7.3L179.7,83.7z"/>
		</g>
		<g>
			<path fill="#616568" d="M208,79c-0.3,0-0.5-0.1-0.7-0.3l-4-4c-0.4-0.4-0.4-1,0-1.4s1-0.4,1.4,0l4,4c0.4,0.4,0.4,1,0,1.4
				C208.5,78.9,208.3,79,208,79z"/>
		</g>
		<g opacity="0.5">
			<g>
				<path fill="#616568" d="M186,57L186,57c0,2.8,2.2,5,5,5l0,0c2.8,0,5-2.2,5-5v0c0-2.8-2.2-5-5-5l0,0C188.2,52,186,54.2,186,57z"
					/>
			</g>
		</g>
		<g opacity="0.5">
			<path fill="#616568" d="M76.7,211.3c-0.5,0-0.9-0.3-1-0.8L73,195.2c-0.3-1.6-1.2-3-2.5-3.9c-1.3-0.9-2.9-1.3-4.5-1l-22.4,4
				c-0.5,0.1-1.1-0.3-1.2-0.8s0.3-1.1,0.8-1.2l22.4-4c2.1-0.4,4.2,0.1,6,1.3s2.9,3.1,3.3,5.2l2.7,15.3c0.1,0.5-0.3,1.1-0.8,1.2
				C76.8,211.3,76.7,211.3,76.7,211.3z"/>
		</g>
		<path fill="#616568" d="M61.8,309.2c-0.1-1.3-0.7-2.5-1.8-3.4c-1-0.9-2.3-1.3-3.6-1.2l-19.9,1.7c0,0,0,0,0,0
			c-2.7,0.2-4.8,2.7-4.5,5.4l0.3,4l-7,0.6c-2.7,0.2-4.8,2.7-4.5,5.4l1.6,18.5c0.1,0.8,0.6,1.5,1.4,1.7c0.2,0.1,0.4,0.1,0.6,0.1
			c0.6,0,1.1-0.3,1.5-0.7l3.4-4c0.2-0.2,0.4-0.3,0.7-0.4l17.1-1.5c2.7-0.2,4.8-2.7,4.5-5.4l-0.3-4l4.2-0.4c0.3,0,0.5,0.1,0.7,0.2
			l4,3.4c0.4,0.3,0.8,0.5,1.3,0.5c0.3,0,0.6-0.1,0.9-0.2c0.7-0.4,1.1-1.1,1.1-1.9L61.8,309.2z M49.6,330.4c0.1,1.6-1.1,3.1-2.7,3.2
			l-17.1,1.5c-0.8,0.1-1.5,0.5-2,1.1l-3.4,4l-1.6-18.5c-0.1-1.6,1.1-3.1,2.7-3.3l7-0.6l0.4,5c0.1,1.3,0.7,2.5,1.8,3.4
			c1,0.9,2.3,1.3,3.6,1.2l11-1L49.6,330.4z M57.5,324.5c-0.5-0.5-1.2-0.7-1.9-0.7c-0.1,0-0.2,0-0.3,0l-17.1,1.5
			c-0.8,0.1-1.6-0.2-2.2-0.7c-0.6-0.5-1-1.2-1.1-2l-1-11c-0.1-1.6,1.1-3.1,2.7-3.3l19.9-1.7c0.8-0.1,1.6,0.2,2.2,0.7
			c0.6,0.5,1,1.2,1.1,2l1.6,18.5L57.5,324.5z"/>
		<g>
			<path fill="#616568" d="M279.7,300.9c0.8,0.6,1.8,0.9,2.9,0.9c0.3,0,0.6,0,0.9-0.1c1.3-0.2,2.5-1,3.2-2.1
				c0.8-1.1,1.1-2.4,0.8-3.7c-0.2-1.3-1-2.5-2.1-3.2c-1.1-0.8-2.4-1.1-3.7-0.8c-1.3,0.2-2.5,1-3.2,2.1
				C276.9,296.2,277.5,299.3,279.7,300.9z M280.1,295.1c0.5-0.7,1.1-1.1,1.9-1.2c0.2,0,0.4,0,0.5,0c0.6,0,1.2,0.2,1.7,0.5
				c0.7,0.5,1.1,1.1,1.2,1.9s0,1.6-0.5,2.2c-0.5,0.7-1.1,1.1-1.9,1.2c-0.8,0.1-1.6,0-2.2-0.5c0,0,0,0,0,0
				C279.5,298.3,279.2,296.4,280.1,295.1z"/>
			<path fill="#616568" d="M307.4,316.8l-3-16.7c-0.2-1.3-1-2.5-2.1-3.2c-1.1-0.8-2.4-1.1-3.7-0.8l-3.1,0.6c-0.1-4-2-7.9-5.5-10.4
				c-5.9-4.1-14-2.7-18.1,3.2c-2.5,3.5-2.9,7.9-1.6,11.7l-7.1,1.2c-1.3,0.2-2.5,1-3.2,2.1c-0.8,1.1-1.1,2.4-0.8,3.7l3,16.7
				c0.4,2.4,2.5,4.1,4.9,4.1c0.3,0,0.6,0,0.9-0.1l35.5-6.3C306.1,322.1,307.9,319.5,307.4,316.8z M273.9,306.4
				c0.4,0.3,0.8,0.7,1.2,1l8.7,6.1c0.4,0.3,0.9,0.4,1.3,0.4c0.7,0,1.5-0.3,1.9-1l6.1-8.7c0.3-0.4,0.6-0.9,0.8-1.4l3.7-0.7l2.6,14.8
				l-28.6,5l-2.6-14.8L273.9,306.4z M273.6,290.5c3.5-5,10.4-6.2,15.3-2.7c5,3.5,6.2,10.4,2.7,15.3l-6.1,8.7
				c-0.1,0.2-0.3,0.2-0.5,0.1l-8.7-6.1C271.3,302.3,270.1,295.4,273.6,290.5z M303,320.6l-35.5,6.3c-1.6,0.3-3.2-0.8-3.5-2.4
				l-3-16.7c-0.1-0.8,0-1.6,0.5-2.2c0.5-0.7,1.1-1.1,1.9-1.2l7.5-1.3c0.3,0.6,0.7,1.2,1.2,1.8l-4.4,0.8c-0.3,0-0.5,0.2-0.6,0.4
				c-0.2,0.2-0.2,0.5-0.2,0.7l3,16.7c0,0.3,0.2,0.5,0.4,0.6c0.2,0.1,0.4,0.2,0.6,0.2c0.1,0,0.1,0,0.2,0l30.5-5.4
				c0.5-0.1,0.9-0.6,0.8-1.2l-3-16.7c-0.1-0.5-0.6-0.9-1.2-0.8l-3.4,0.6c0.2-0.7,0.4-1.4,0.5-2.1l3.6-0.6c0.2,0,0.4,0,0.5,0
				c0.6,0,1.2,0.2,1.7,0.5c0.7,0.5,1.1,1.1,1.2,1.9l3,16.7C305.7,318.7,304.7,320.3,303,320.6z"/>
		</g>
		<path fill="#616568" d="M615.8,336.5l-3.7-3.7c-1.5-1.5-3.5-2-5.4-1.6c0.4-1.9-0.2-3.9-1.6-5.4l-3.7-3.7c-1.1-1.1-2.6-1.7-4.2-1.7
			s-3.1,0.6-4.2,1.7c-1.1,1.1-1.7,2.6-1.7,4.2s0.6,3.1,1.7,4.2l3.7,3.7c1.2,1.2,2.7,1.7,4.2,1.7c0.4,0,0.8,0,1.2-0.1
			c-0.4,1.9,0.2,3.9,1.6,5.4l3.7,3.7c1.1,1.1,2.6,1.7,4.2,1.7c1.6,0,3.1-0.6,4.2-1.7s1.7-2.6,1.7-4.2
			C617.6,339.1,616.9,337.6,615.8,336.5z M596.4,327.1c-0.4-0.4-0.4-1,0-1.4l0.2-0.2c0,0,0,0,0,0c0.2-0.2,0.4-0.3,0.7-0.3
			c0.3,0,0.5,0.1,0.7,0.3l1.7,1.7c-0.3,0.2-0.7,0.4-0.9,0.6c-0.3,0.3-0.5,0.6-0.6,0.9L596.4,327.1z M600.1,330.8
			c-0.2-0.2-0.3-0.5-0.3-0.8s0.1-0.6,0.3-0.8c0.2-0.2,0.5-0.3,0.8-0.3s0.6,0.1,0.8,0.3l7,7c0.2,0.2,0.3,0.5,0.3,0.8
			s-0.1,0.6-0.3,0.8c-0.4,0.4-1.2,0.4-1.6,0L600.1,330.8z M610.2,339.3c0.3-0.3,0.5-0.6,0.6-0.9l1.7,1.7c0.4,0.4,0.4,1,0,1.4
			l-0.2,0.2c-0.4,0.4-1,0.4-1.4,0l-1.7-1.7C609.5,339.8,609.9,339.5,610.2,339.3z M594.5,329.2c-0.7-0.7-1.2-1.7-1.2-2.8
			s0.4-2,1.2-2.8s1.7-1.2,2.8-1.2s2,0.4,2.8,1.2l3.7,3.7c0.6,0.6,1,1.4,1.1,2.3l-1.6-1.6l-0.1-0.1l-3.8-3.8c-1.1-1.1-3.1-1.1-4.2,0
			l-0.2,0.2c-1.2,1.2-1.2,3.1,0,4.2l3.8,3.8l0.1,0.1l1.6,1.6c-0.8-0.1-1.6-0.5-2.3-1.1L594.5,329.2z M614.4,343.5
			c-1.5,1.5-4.1,1.5-5.6,0l-3.7-3.7c-0.6-0.6-1-1.4-1.1-2.3l1.6,1.6l0.1,0.1l3.8,3.8c0.6,0.6,1.3,0.9,2.1,0.9c0.8,0,1.6-0.3,2.1-0.9
			l0.2-0.2c1.2-1.2,1.2-3.1,0-4.2l-3.8-3.8c0,0,0,0,0,0l-1.6-1.6c0.8,0.1,1.6,0.5,2.3,1.1l3.7,3.7c0.7,0.7,1.2,1.7,1.2,2.8
			S615.1,342.8,614.4,343.5z"/>
		<g>
			<path fill="#616568" d="M476.6,87.7c-1.5,1.1-2.6,2.7-2.9,4.5l-0.5,3c-0.1,0.5,0.3,1.1,0.8,1.2l23.6,4.2c0.1,0,0.1,0,0.2,0
				c0.5,0,0.9-0.3,1-0.8l0.5-3c0.7-3.8-1.9-7.4-5.7-8.1l-2.1-0.4c0.5-0.4,1.1-0.9,1.6-1.5c1.5-1.7,2.6-4,3-5.8
				c0.3-1.8-0.1-3.7-1.2-5.2c-1.1-1.5-2.7-2.6-4.5-2.9c-3.8-0.7-7.4,1.9-8.1,5.7c-0.4,2.2,0.2,5.9,1.8,8.4l-2.2-0.4
				C480,86.2,478.2,86.6,476.6,87.7z M497.4,96.4l-0.3,2l-21.7-3.8l0.3-2c0.2-1.3,1-2.5,2.1-3.2c1.1-0.8,2.4-1.1,3.7-0.8l5.9,1
				c0,0,0,0,0,0c0,0,0,0,0,0l5.9,1C496.1,91,497.9,93.6,497.4,96.4z M484.2,78.8c0.4-2.4,2.5-4.1,4.9-4.1c0.3,0,0.6,0,0.9,0.1
				c1.3,0.2,2.5,1,3.2,2.1c0.8,1.1,1.1,2.4,0.8,3.7c0,0,0,0,0,0c-0.5,2.9-3.8,7.5-6.3,7l0,0C485.3,87.1,483.7,81.7,484.2,78.8z"/>
			<path fill="#616568" d="M508.7,66.9c-3.3-0.6-6.4,1.6-7,4.9c-0.6,3.3,1.6,6.4,4.9,7s6.4-1.6,7-4.9
				C514.1,70.6,512,67.4,508.7,66.9z"/>
			<path fill="#616568" d="M520.4,57.8c-2.2-0.4-4.3,1.1-4.6,3.2c-0.4,2.2,1.1,4.3,3.2,4.6c2.2,0.4,4.3-1.1,4.6-3.2
				S522.6,58.2,520.4,57.8z"/>
			<path fill="#616568" d="M514.1,47.5c-1.1-0.2-2.1,0.5-2.3,1.6c-0.2,1.1,0.5,2.1,1.6,2.3c1.1,0.2,2.1-0.5,2.3-1.6
				C515.9,48.7,515.2,47.7,514.1,47.5z"/>
			<path fill="#616568" d="M510.7,81.2c0.5,2.7,0.6,5.5,0.1,8.3c-2.2,12.5-14.1,20.9-26.6,18.7c-12.5-2.2-20.9-14.2-18.7-26.6
				c1.1-6.1,4.4-11.3,9.5-14.8c3.9-2.7,8.5-4.2,13.1-4.2c1.3,0,2.7,0.1,4,0.4c3.3,0.6,6.4,1.9,9,3.7c0.5-0.5,1-1,1.6-1.3
				c-3-2.1-6.4-3.6-10.2-4.3c-6.6-1.2-13.2,0.3-18.7,4.1c-5.5,3.8-9.1,9.6-10.3,16.1c-2.4,13.6,6.7,26.6,20.3,29
				c1.5,0.3,2.9,0.4,4.4,0.4c11.9,0,22.5-8.5,24.6-20.7c0.6-3.3,0.5-6.5-0.2-9.6C512,80.7,511.4,81,510.7,81.2z"/>
		</g>
		<path opacity="0.2" fill="#616568" d="M570.8,55.8c-0.6,0.7-1.7,0.3-1.8-0.6l-0.4-4.6l-12,1l2.7,30.9l17.9-1.6l-2.6-29.7
			c-0.2,0.1-0.4,0.3-0.5,0.4L570.8,55.8z"/>
		<path fill="#616568" d="M599.2,21.9c-0.2-2.7-2.7-4.8-5.4-4.5l-23.9,2.1c-1.3,0.1-2.5,0.7-3.4,1.8c-0.9,1-1.3,2.3-1.2,3.6
			l1.7,19.9l-11,1c-1.3,0.1-2.5,0.7-3.4,1.8s-1.3,2.3-1.2,3.6l3.1,35.9c0.2,2.6,2.4,4.6,5,4.6c0.1,0,0.3,0,0.4,0l17.9-1.6
			c2.7-0.2,4.8-2.7,4.5-5.4l-2.9-32.9l16.9-1.5c2.7-0.2,4.8-2.7,4.5-5.4L599.2,21.9z M573.9,53.7l2.3,26.5l-15.9,1.4l-2.5-28.9
			l10-0.9l0.3,3.6c0.1,0.8,0.6,1.5,1.4,1.7c0.2,0.1,0.4,0.1,0.6,0.1c0.6,0,1.1-0.3,1.5-0.7L573.9,53.7z M580.7,84.8
			c0.1,1.6-1.1,3.1-2.7,3.3L560,89.6c-1.7,0.1-3.1-1.1-3.2-2.7L553.6,51c-0.1-0.8,0.2-1.6,0.7-2.2c0.5-0.6,1.2-1,2-1.1l11-1l0.3,3
			l-11,1c-0.3,0-0.5,0.1-0.7,0.4c-0.2,0.2-0.3,0.5-0.2,0.7l2.7,30.9c0,0.5,0.5,0.9,1,0.9c0,0,0.1,0,0.1,0l17.9-1.6
			c0.3,0,0.5-0.1,0.7-0.4c0.2-0.2,0.3-0.5,0.2-0.7l-2.5-28.9l2-0.2L580.7,84.8z M596.5,48.3l-21.1,1.8c-0.8,0.1-1.5,0.4-2,1.1
			l-3.4,4l-2.7-30.5c-0.1-0.8,0.2-1.6,0.7-2.2c0.5-0.6,1.2-1,2-1.1l23.9-2.1c1.7-0.1,3.1,1.1,3.2,2.7l2,22.9
			C599.4,46.7,598.2,48.1,596.5,48.3z"/>
		<g>
			<path fill="#616568" d="M285.7,121.3l-4.9-18.4c0-0.1-0.1-0.2-0.2-0.4c-0.1-0.1-0.2-0.2-0.3-0.3l-4.5-2.6l-0.9-3.5
				c-0.2-0.8-0.7-1.4-1.4-1.8c-0.7-0.4-1.5-0.5-2.3-0.3l-3.5,0.9l-4-2.3c-1.4-0.8-3.3-0.3-4.1,1.1l-2.3,4l-3.5,0.9
				c-0.8,0.2-1.4,0.7-1.8,1.4c-0.4,0.7-0.5,1.5-0.3,2.3l0.9,3.5l-2.6,4.5c0,0,0,0,0,0c-0.1,0.1-0.1,0.2-0.1,0.3c0,0,0,0,0,0
				c0,0.1,0,0.3,0,0.4l4.9,18.4c0.1,0.3,0.2,0.5,0.5,0.6c0.2,0.1,0.3,0.1,0.5,0.1c0.1,0,0.2,0,0.3,0l29-7.8
				C285.6,122.4,285.9,121.8,285.7,121.3z M278.5,103.6l-1.1,1.9l-0.8-3.1L278.5,103.6z M261.4,94.8c0.3-0.5,0.9-0.6,1.4-0.4
				l2.3,1.3l-5,1.3L261.4,94.8z M254.4,100.7l17.4-4.7c0.3-0.1,0.5,0,0.8,0.1c0.2,0.1,0.4,0.3,0.5,0.6l3,11.2l-5.2,9.1l-5,1.3
				l-9.1-5.2l-3-11.2C253.5,101.4,253.8,100.9,254.4,100.7z M254.2,111.7l-1.9-1.1l1.1-1.9L254.2,111.7z M256.5,128.1l-4-15.1
				l2.8,1.6l9.8,5.7c0.2,0.1,0.3,0.1,0.5,0.1c0.1,0,0.2,0,0.3,0l5.8-1.6c0.3-0.1,0.5-0.2,0.6-0.5l5.7-9.8l1.6-2.8l4,15.1
				L256.5,128.1z"/>
			<path fill="#616568" d="M265.1,111.1c0.4,0,0.9-0.1,1.3-0.2c2.7-0.7,4.2-3.5,3.5-6.1c-0.7-2.7-3.5-4.2-6.1-3.5
				c-2.7,0.7-4.2,3.5-3.5,6.1C260.9,109.6,262.9,111.1,265.1,111.1z M264.3,103.2c0.3-0.1,0.5-0.1,0.8-0.1c1.3,0,2.5,0.9,2.9,2.2
				c0.4,1.6-0.5,3.2-2.1,3.7c-1.6,0.4-3.2-0.5-3.7-2.1C261.8,105.3,262.7,103.6,264.3,103.2z"/>
		</g>
		<path fill="#616568" d="M363.7,112.3l-11-11c-0.4-0.4-1-0.4-1.4,0l-0.8,0.8l-2.6-2.6c2-2.8,3.1-6.3,3.1-10
			c0-9.7-7.8-17.5-17.5-17.5S316,79.8,316,89.5s7.8,17.5,17.5,17.5c3.7,0,7.1-1.2,10-3.1l2.6,2.6l-0.8,0.8c-0.4,0.4-0.4,1,0,1.4
			l11,11c0.2,0.2,0.5,0.3,0.7,0.3s0.5-0.1,0.7-0.3l6-6C364.1,113.3,364.1,112.7,363.7,112.3z M318,89.5c0-8.5,7-15.5,15.5-15.5
			c8.5,0,15.5,7,15.5,15.5c0,8.5-7,15.5-15.5,15.5C325,105,318,98,318,89.5z M345,102.6c0.6-0.5,1.1-1,1.6-1.6l2.5,2.5l-1.6,1.6
			L345,102.6z M357,117.6l-9.6-9.6l4.6-4.6l9.6,9.6L357,117.6z"/>
	</g>
</g>
<g id="Ebene_2" display="none">
</g>
</svg>
